/* XPM */
static char * continue_xpm[] = {
"32 32 12 1",
" 	c None",
".	c #000000",
"+	c #C0C0C0",
"@	c #FFFFFF",
"#	c #C0FFC0",
"$	c #00C000",
"%	c #0000FF",
"&	c #00C0C0",
"*	c #00FF00",
"=	c #0000C0",
"-	c #008000",
";	c #000080",
"        ........................",
"        .++++++++++++++++++++++.",
"        .+@@@@@@@@@@@@@@@@@@@@+.",
"        .+@@@@@@+......+@@@@@@+.",
"        .+@@@@+..####$%..+@@@@+.",
"        .+@@@+.&%%#**$%%=.+@@@+.",
"        .+@@@.&%%%%$$$=%%=.@@@+.",
"        .+@@+.&%%%%$$%====.+@@+.",
"        .+@@.##%%%%%%%=%===.@@+.",
"        .+@@.#*##%%%%=%====.@@+.",
"        .+@@.#**#%%%%=%###$.@@+.",
"        .+@@.#***%%%====#*$.@@+.",
"        .+@@.#****$%=%=#*$-.@@+.",
"        .+@@+.*$$$$===#**$.+@@+.",
"        .+@@@.$$%%%%==**$-.@@@+.",
"        .+@@@+.$%%%%=;$--.+@@@+.",
"        .+@@@@+..%;;;;-..+@@@@+.",
"        .+@@@@@@+......+@@@@@@+.",
"        .+@@@@@@@@@@@@@@@@@@@@+.",
"......................@@@@@@@@+.",
".#####################.@@@@@@@+.",
".#********************#.@@@@@@+.",
".#*********************#.@@@@@+.",
".#**********************$.@@@@+.",
".#*********************$.++@@@+.",
".#********************$.++@@@@+.",
".$$$$$$$$$$$$$$$$$$$$$.++@@@@@+.",
"......................++@@@@@@+.",
"        .++++++++++++++@@@@@@@+.",
"        .+@@@@@@@@@@@@@@@@@@@@+.",
"        .++++++++++++++++++++++.",
"        ........................"};
