/* XPM */
static char * exit_xpm[] = {
"35 34 10 1",
" 	c None",
".	c #000000",
"+	c #FFDCA8",
"@	c #FFA858",
"#	c #FFFFFF",
"$	c #585858",
"%	c #303030",
"&	c #C0C0C0",
"*	c #A0A0A4",
"=	c #400000",
"                                   ",
"    ...                            ",
"    .++..                          ",
"  ...@+++..                        ",
"  .#$..@+++..                      ",
"  .###$..@+++..  ..%               ",
"  .#####$..@+++..+++..             ",
"  .#######$..@++++++++..           ",
"  .#########$..@+++++++.           ",
"  .#####&#&&**.@@@@+++++.          ",
"  .######&#&&&$.@@@@@@++.          ",
"  .###&#&#&#&&*$..@=.@@@+.         ",
"  .####&#&&&&&&&*$.$$..@+.         ",
"  .#&#&#&#&&&&&&&&&*&*$.@@.        ",
"  .##&#&&&&&..&&*&*&*&*$.@.        ",
"  .#&#&.&&&....&&*&*&**$.@.        ",
"  .&#&&.&&.####.*&*****$.@.        ",
"  .#&#&.&.######.*&****$.@.        ",
"  .&&&&..########.*****$=@.        ",
"  .&&&&.#########&.****$.@.        ",
"  .**&.##########&&.***$.@.        ",
"  .$$...#########&...**$.@.        ",
"   ..$$.#########&.****$.@.        ",
"     ...###...###&.****$.@.        ",
"       .###.*.###&.****$.@.        ",
"       .###.$.###&.****$.@.        ",
"       .###...###&.****$.@.        ",
"       .###. .###&.****$.@...      ",
"       ..... ......****$.@.....    ",
"                 ..$$**$.@......   ",
"                   ..$$$.@.....    ",
"                     ..$.@...      ",
"                       ....        ",
"                                   "};
