/* XPM */
static char * gobg_xpm[] = {
"32 32 10 1",
" 	c None",
".	c #000000",
"+	c #FFFFFF",
"@	c #C0C0C0",
"#	c #808080",
"$	c #C0FFFF",
"%	c #A0A0A4",
"&	c #585858",
"*	c #008080",
"=	c #00FF00",
" .....................          ",
".+++++++++++++++++++++.         ",
".+@@@@@@@@@@@@@@@@@@@#.         ",
".+@#################@#.         ",
".+@#...............+@#.         ",
".+@#.$.............+@#.         ",
".+@#..$............+@#.         ",
".+@#.$..$$.........+@#.         ",
".+@#...............+@#.         ",
".+@#...............+@#.         ",
".+@#...............+@#......... ",
".+@#...............+@#.%%%%%%%@.",
".+@#...............+@#.%%%%%%@#.",
".+@#...............+@#.%%%%%@##.",
".+@+++++++++++++++++@#.++++@###.",
".+@@@@@@@@@@@@@@@@@@@#.@@@@####.",
".#####################.&&&@####.",
" .....................***+@####.",
"   ..       .@&**********+@####.",
"  ..        .@&**********+@####.",
"  ...       .@&**********+@####.",
"   ..       .@&**********+@####.",
"  ..   .... .@&**********+@###. ",
"  .....++.. .@++++++++++++@##&&.",
"   ....@@.  .@@@@@@@@@@@@@@#&#@.",
"      .##..  .&&&&&&&&&&&&&&#@#.",
"       ....  .##############@##.",
"            .++++++++++++++@###.",
"            .@@@@@@@@@@@@@@###. ",
"            .@++==@@@.....@##.  ",
"            .@@@@@@@@@@@@@@#.   ",
"             ...............    "};
