/* XPM */
static char * restart_xpm[] = {
"32 32 426 2",
"  	c None",
". 	c #105615",
"+ 	c #127513",
"@ 	c #054205",
"# 	c #073908",
"$ 	c #0B300A",
"% 	c #0F2D05",
"& 	c #062E03",
"* 	c #7AB087",
"= 	c #9EE3AE",
"- 	c #A5EDB5",
"; 	c #90E3A2",
"> 	c #75E38A",
", 	c #24B72E",
"' 	c #186317",
") 	c #102915",
"! 	c #15331C",
"~ 	c #0D5010",
"{ 	c #09580A",
"] 	c #0B5508",
"^ 	c #144E15",
"/ 	c #99E3AD",
"( 	c #9DEFA9",
"_ 	c #8BE0A6",
": 	c #6ED987",
"< 	c #54D15D",
"[ 	c #49BF52",
"} 	c #185815",
"| 	c #122E18",
"1 	c #0F4C12",
"2 	c #0B540D",
"3 	c #085D08",
"4 	c #0D6010",
"5 	c #15631C",
"6 	c #206A2E",
"7 	c #17631E",
"8 	c #7CB685",
"9 	c #9FE9AC",
"0 	c #7BE59D",
"a 	c #8CD39A",
"b 	c #65CD74",
"c 	c #51C15F",
"d 	c #37C844",
"e 	c #28AF2E",
"f 	c #081A0A",
"g 	c #183820",
"h 	c #125E16",
"i 	c #186722",
"j 	c #206D30",
"k 	c #237433",
"l 	c #23802A",
"m 	c #1A3310",
"n 	c #033403",
"o 	c #2D5F3C",
"p 	c #88E199",
"q 	c #6BDD7C",
"r 	c #64CB73",
"s 	c #61C469",
"t 	c #49B54F",
"u 	c #40B443",
"v 	c #24B02B",
"w 	c #1B9C28",
"x 	c #154318",
"y 	c #0C410A",
"z 	c #206E30",
"A 	c #287D38",
"B 	c #288234",
"C 	c #229329",
"D 	c #106718",
"E 	c #062303",
"F 	c #16450C",
"G 	c #024102",
"H 	c #043F04",
"I 	c #4A935C",
"J 	c #6EC97A",
"K 	c #59C461",
"L 	c #38C142",
"M 	c #29B134",
"N 	c #399D3A",
"O 	c #20A228",
"P 	c #144C16",
"Q 	c #052907",
"R 	c #1D6B2B",
"S 	c #227232",
"T 	c #26842F",
"U 	c #1D9826",
"V 	c #189826",
"W 	c #14851C",
"X 	c #199421",
"Y 	c #023602",
"Z 	c #238025",
"` 	c #69C071",
" .	c #38BE46",
"..	c #2FB739",
"+.	c #29AC28",
"@.	c #389A3A",
"#.	c #19A826",
"$.	c #16A122",
"%.	c #177C1A",
"&.	c #0A310E",
"*.	c #065306",
"=.	c #247B30",
"-.	c #209629",
";.	c #28982B",
">.	c #1FA528",
",.	c #22B028",
"'.	c #1F9B28",
").	c #0B510F",
"!.	c #349D33",
"~.	c #55B75D",
"{.	c #2BBF32",
"].	c #1FB328",
"^.	c #209B26",
"/.	c #07510A",
"(.	c #081F0C",
"_.	c #288830",
":.	c #20AA28",
"<.	c #28B42D",
"[.	c #28C038",
"}.	c #26791F",
"|.	c #0B2506",
"1.	c #105017",
"2.	c #1E8C20",
"3.	c #239728",
"4.	c #1BA526",
"5.	c #189B24",
"6.	c #108E1D",
"7.	c #121D1A",
"8.	c #031700",
"9.	c #1E6421",
"0.	c #25AF28",
"a.	c #25BC2D",
"b.	c #30C741",
"c.	c #27AF34",
"d.	c #082101",
"e.	c #052C07",
"f.	c #154E10",
"g.	c #228D2D",
"h.	c #095D0F",
"i.	c #113A18",
"j.	c #072F03",
"k.	c #031D00",
"l.	c #189020",
"m.	c #2AB42D",
"n.	c #2EC33A",
"o.	c #28B135",
"p.	c #0E5A13",
"q.	c #1A751A",
"r.	c #1A5323",
"s.	c #111807",
"t.	c #002200",
"u.	c #081D03",
"v.	c #0B4B0F",
"w.	c #0E590C",
"x.	c #133B15",
"y.	c #5A8862",
"z.	c #699774",
"A.	c #619872",
"B.	c #429150",
"C.	c #2B6735",
"D.	c #0E3315",
"E.	c #012601",
"F.	c #13301C",
"G.	c #053E05",
"H.	c #1D7228",
"I.	c #228129",
"J.	c #25772E",
"K.	c #0A360C",
"L.	c #102E0C",
"M.	c #3D9043",
"N.	c #8ECB9A",
"O.	c #91E4AB",
"P.	c #86DF9C",
"Q.	c #61E379",
"R.	c #4FE360",
"S.	c #197017",
"T.	c #0D4F10",
"U.	c #186E1F",
"V.	c #1B8C29",
"W.	c #189E22",
"X.	c #0F6416",
"Y.	c #4B5A4B",
"Z.	c #72AE7C",
"`.	c #6EE592",
" +	c #6BDF84",
".+	c #5DDB6E",
"++	c #55D15D",
"@+	c #31B13B",
"#+	c #012B01",
"$+	c #35A735",
"%+	c #26C52D",
"&+	c #247D2F",
"*+	c #115918",
"=+	c #197020",
"-+	c #198F24",
";+	c #229528",
">+	c #1D9B24",
",+	c #1F9929",
"'+	c #276333",
")+	c #66D375",
"!+	c #5CDA6B",
"~+	c #50CE58",
"{+	c #3AC846",
"]+	c #26C032",
"^+	c #2A792D",
"/+	c #022A02",
"(+	c #5FE26C",
"_+	c #58E066",
":+	c #1E852E",
"<+	c #054F05",
"[+	c #1E8523",
"}+	c #209428",
"|+	c #258C2E",
"1+	c #21922E",
"2+	c #269928",
"3+	c #1BAB28",
"4+	c #28A829",
"5+	c #28801E",
"6+	c #081703",
"7+	c #57B762",
"8+	c #4CE35D",
"9+	c #39DB43",
"0+	c #3DCB4B",
"a+	c #33C53B",
"b+	c #1FB82E",
"c+	c #24B228",
"d+	c #1BA724",
"e+	c #1F7D24",
"f+	c #21932F",
"g+	c #189623",
"h+	c #106B15",
"i+	c #0A3B03",
"j+	c #053B07",
"k+	c #0E921A",
"l+	c #28A227",
"m+	c #1AAA27",
"n+	c #1FAF29",
"o+	c #26BF34",
"p+	c #28C232",
"q+	c #2BC33A",
"r+	c #34B237",
"s+	c #10490A",
"t+	c #64C16C",
"u+	c #43CA4D",
"v+	c #48B750",
"w+	c #2FBB39",
"x+	c #20B028",
"y+	c #27A428",
"z+	c #198A1F",
"A+	c #184E11",
"B+	c #177B1A",
"C+	c #0C5C10",
"D+	c #074C05",
"E+	c #17380A",
"F+	c #0E4715",
"G+	c #15601C",
"H+	c #1DB128",
"I+	c #20B429",
"J+	c #2CC539",
"K+	c #47BE52",
"L+	c #49C552",
"M+	c #42C34B",
"N+	c #31AE34",
"O+	c #0D5D0D",
"P+	c #3A9B45",
"Q+	c #3BB73E",
"R+	c #24BF2E",
"S+	c #19B328",
"T+	c #2AAE28",
"U+	c #199E20",
"V+	c #084506",
"W+	c #07400A",
"X+	c #2A9338",
"Y+	c #46B54F",
"Z+	c #39C248",
"`+	c #50B959",
" @	c #33C740",
".@	c #3BA840",
"+@	c #319431",
"@@	c #094C0D",
"#@	c #0D5E12",
"$@	c #20B32D",
"%@	c #176613",
"&@	c #0E3415",
"*@	c #001700",
"=@	c #0F7314",
"-@	c #26B22D",
";@	c #2ABF38",
">@	c #30BE38",
",@	c #21B12A",
"'@	c #179D27",
")@	c #1B5A23",
"!@	c #169922",
"~@	c #08330C",
"{@	c #6B9D72",
"]@	c #000500",
"^@	c #083709",
"/@	c #1B9822",
"(@	c #349E3A",
"_@	c #1CA924",
":@	c #159F21",
"<@	c #1C822C",
"[@	c #142B0E",
"}@	c #2DAE28",
"|@	c #1E671F",
"1@	c #050C00",
"2@	c #99F7A4",
"3@	c #011400",
"4@	c #043304",
"5@	c #1E6B27",
"6@	c #1C6225",
"7@	c #044A04",
"8@	c #162808",
"9@	c #28932F",
"0@	c #1E9220",
"a@	c #072A06",
"b@	c #152C15",
"c@	c #0A440A",
"d@	c #17521C",
"e@	c #1A5220",
"f@	c #1B6926",
"g@	c #1D7D20",
"h@	c #1D7724",
"i@	c #1D4C12",
"j@	c #6FBA89",
"k@	c #AAFCB3",
"l@	c #6BA674",
"m@	c #6EA074",
"n@	c #40AE4D",
"o@	c #36A33B",
"p@	c #1D931D",
"q@	c #19891D",
"r@	c #1C6423",
"s@	c #0C4D0C",
"t@	c #063C02",
"u@	c #29AE2E",
"v@	c #0C6713",
"w@	c #052707",
"x@	c #228532",
"y@	c #239B26",
"z@	c #085A0B",
"A@	c #246D31",
"B@	c #A8FAB1",
"C@	c #8FE3A6",
"D@	c #81DA9D",
"E@	c #50D561",
"F@	c #47B94D",
"G@	c #257634",
"H@	c #106114",
"I@	c #269B27",
"J@	c #051E01",
"K@	c #132A15",
"L@	c #247534",
"M@	c #21AF29",
"N@	c #0E610F",
"O@	c #52AE65",
"P@	c #9AEFAA",
"Q@	c #98E9AC",
"R@	c #6DC777",
"S@	c #46BD4F",
"T@	c #23B72C",
"U@	c #1F802D",
"V@	c #1C6B28",
"W@	c #0A5D0B",
"X@	c #013101",
"Y@	c #14401A",
"Z@	c #105F13",
"`@	c #20652A",
" #	c #2EBB32",
".#	c #205919",
"+#	c #2B763A",
"@#	c #8CEAA9",
"##	c #4CDB56",
"$#	c #55C25D",
"%#	c #3FB546",
"&#	c #1BAD26",
"*#	c #288D2D",
"=#	c #123A13",
"-#	c #0F1C0A",
";#	c #22B32B",
">#	c #40C94B",
",#	c #156519",
"'#	c #71B784",
")#	c #96DFAD",
"!#	c #6DDF89",
"~#	c #43D94F",
"{#	c #3ABE3D",
"]#	c #2BAE2D",
"^#	c #22772F",
"/#	c #20692D",
"(#	c #0C1E07",
"_#	c #0A500C",
":#	c #216F30",
"<#	c #287F36",
"[#	c #1D902B",
"}#	c #2FAF2E",
"|#	c #34C042",
"1#	c #43E752",
"2#	c #285228",
"3#	c #377B4B",
"4#	c #75D685",
"5#	c #76C781",
"6#	c #4DB553",
"7#	c #37A634",
"8#	c #236D2F",
"9#	c #1E5D29",
"0#	c #0E2A0E",
"a#	c #0C4E10",
"b#	c #1B9F29",
"c#	c #31BF30",
"d#	c #48D652",
"e#	c #6CE18C",
"f#	c #23652D",
"g#	c #7AC57F",
"h#	c #6ABB71",
"i#	c #29AE34",
"j#	c #1EAB28",
"k#	c #114F10",
"l#	c #0C340B",
"m#	c #245727",
"n#	c #42B740",
"o#	c #000A00",
"p#	c #000800",
"q#	c #248A2A",
"r#	c #000200",
"s#	c #001000",
"                                . + @ # $ % &                   ",
"                    * = = - ; > , ' ) ! ~ { ] ^                 ",
"                  ; / ( _ : < [ } | 1 2 3 4 5 6 7               ",
"                8 9 0 a b c d e f g 2 3 h i j k l m     n n     ",
"              o p q r s t u v w x y 3 4 z z A B C D E F G H     ",
"              I J K L L M N O P   Q 4 R S T B U V C W X Y       ",
"            Z `  ...+.@.#.$.%.&.    *.i =.B -.;.>.,.'.).        ",
"            !.~.{.].O O ^.^./.(.    G i _._.^.:.<.[.}.|.        ",
"            n 1.2.3.4.V 5.6.7.      8.9.^.#.0.a.b.c.d.          ",
"                e.f.g.C 5.h.i.  j.k.7 l.:.:.m.n.o.p.            ",
"                    n 1.q.r.    s.t.u.u.t.s.t.t.s.    v.w.      ",
"x.y.z.z.z.z.A.B.C.D.    E.F.                      G.H.I.J.K.    ",
"  L.M.N.O.O.P.Q.R.S.                          T.U.V.U U W.X.    ",
"    Y.Z.`.`. +.+++@+#+        $+%+&+*+      =+-+V C 5.;+>+,+t.  ",
"    '+Q.)+!+~+~+{+]+^+/+      (+_+:+<+      [+}+|+1+2+3+4+4+5+6+",
"    7+8+9+0+a+a+b+c+d+e+      f+g+h+i+      j+k+l+m+n+o+p+q+r+s+",
"    t+u+v+w+x+y+:.z+A+B+C+    *+D+E+F+        G+H+I+J+K+L+M+N+O+",
"    P+Q+R+S+y+T+U+V+    W+                    G.X+Y+Z+`+ @.@+@@@",
"    #@$@H+,.:.:.%@&@                    *@      =@-@;@>@,@'@)@  ",
"      !@H+,.:.:.~@                    {@]@      ^@/@(@_@:@<@[@  ",
"        }@,.y+|@1@                    2@3@      4@h 5@6@7@8@    ",
"        9@:.0@a@b@c@d@e@f@g@h@i@    j@k@l@m@n@o@p@q@r@s@*.t@    ",
"          u@v@w@1 3 z z x@5.y@z@  A@B@9 C@D@E@F@4.C G@H@<+      ",
"          I@J@K@3 h z L@B U M@N@  O@P@Q@: R@S@T@4.U@V@W@X@      ",
"          G+f Y@Z@`@S B ^.3+ #.#+#@#/ 0 ##$#%#&#*#S { =#        ",
"          G.-#~ Z@6 S B ^.;#>#,#  '#)#!#~#{#]#^.^#/#~ $         ",
"            (#_#H@:#<#[#}#|#1#2#  3#4#5#6#7#;+x@8#9#0#          ",
"              X@a#G@V b#c#d#e#f#  G.g#h#i#j#B L@k#l#            ",
"                  u.t.s.t.t.s.t.    m#n#o#p#p#p#                ",
"                                      q#r#                      ",
"                                        s#                      ",
"                                        t.                      "};
