/* XPM */
static char * stop_xpm[] = {
"48 38 60 1",
" 	c None",
".	c #202020",
"+	c #000000",
"@	c #490000",
"#	c #180000",
"$	c #611420",
"%	c #710008",
"&	c #AE8686",
"*	c #AEAAA6",
"=	c #AEA2A6",
"-	c #AEA29E",
";	c #A67179",
">	c #690000",
",	c #283838",
"'	c #9E7171",
")	c #793038",
"!	c #690008",
"~	c #8E7171",
"{	c #412020",
"]	c #863841",
"^	c #710010",
"/	c #8E6971",
"(	c #790418",
"_	c #710000",
":	c #863041",
"<	c #590000",
"[	c #9E6969",
"}	c #8E6969",
"|	c #711020",
"1	c #9E4951",
"2	c #8E6169",
"3	c #8E3C49",
"4	c #966969",
"5	c #303030",
"6	c #8E6161",
"7	c #8E4951",
"8	c #967571",
"9	c #FFFBFF",
"0	c #866169",
"a	c #DFF3EF",
"b	c #713841",
"c	c #964149",
"d	c #CFAAB6",
"e	c #D7CBCF",
"f	c #792838",
"g	c #BE9296",
"h	c #E7FBF7",
"i	c #E7FBFF",
"j	c #AE6169",
"k	c #510000",
"l	c #862030",
"m	c #A65159",
"n	c #862838",
"o	c #9E5561",
"p	c #EFEFEF",
"q	c #DFE7E7",
"r	c #9E4151",
"s	c #C79AA6",
"t	c #9EA6A6",
"u	c #9EA29E",
"                                                ",
"                .++++++++++++++                 ",
"               .+@@@@@@@@@@@@@#$                ",
"              .+%&*==--==--==*;>%               ",
"             ,+%')>!%!%!!%!%!>)~{%              ",
"            ,+%']>%^^^^^^^^^^%>]/{(             ",
"           ,+_;:>^^^^^^^^^^^^^^>:~<(            ",
"          ,+_')>^^^^^^^^^^^^^^^^>)~<^           ",
"         {+%[]>^^^^^^^^^^^^^^^^^^>]}<%          ",
"        {+_[]>^^^^^^^^^^^^^^^^^^^^>]/<|         ",
"       ,+_']>^^^^^^^^^^^^^^^^^^^^^^>]~<(        ",
"      {+%[]>^^^^^^^^^^^^^^^^^^^^^^^^>]}<^       ",
"      .+12>^^^^^^^^^^^^^^^^^^^^^^^^^^>23{       ",
"      ,+14>^^^^^^^^^%^^^^^^^^^^^^^^^^>23>       ",
"      5+16>^%>>{>>>{{{>>>>{>>!>>{>>%^>63{       ",
"      5+76>%>8990<9999a<~99ab<c9998>%>63{       ",
"      5+16>>79de9fge9eef9hd9i{:9dd97>>63{       ",
"      5+14>{j9<k;(kl9(@m9]@&9>n9>$9o{>63>       ",
"      5+76>>bipe${{39lko9^kj9{n9|29o{>63{       ",
"      5+76>!{be9i|<39lkk9^kj9{n999q|>>63{       ",
"      5+14>!ll@>9r<39l<o9]@&9>n9s&f>^>63>       ",
"      5+16>>o9de9f<39l<39hd9i{:9|k>^^>63{       ",
"      5+76>%>8990>{c9n>>~99ab<c9:>^^^>63{       ",
"      5+16>^%>>{>!!>!>^!>>{>>!>!>!^^^>63{       ",
"      ,+14>^^^^^^^^^^^^^^^^^^^^^^^^^^>23>       ",
"      .+12>^^^^^^^^^^^^^^^^^^^^^^^^^^>23{       ",
"       #{[]>^^^^^^^^^^^^^^^^^^^^^^^^>]}<!       ",
"        .k']>^^^^^^^^^^^^^^^^^^^^^^>]~{^        ",
"         .<[]>^^^^^^^^^^^^^^^^^^^^>]/{(         ",
"          #<4]>^^^^^^^^^^^^^^^^^^>]}{^          ",
"           #<')>^^^^^^^^^^^^^^^^>)~{!           ",
"            .k':>^^^^^^^^^^^^^^>:4<^            ",
"             .<[]>%^^^^^^^^^^%>]/{%             ",
"              #{4)>%%%%%%%%%%>)~{!              ",
"               #<8tttuuttuuttt8{!               ",
"                {<<k<<<kk<<<k<k%                ",
"                 &ggsggggggsgg&                 ",
"                                                "};
