/* XPM */
static char * audio_xpm[] = {
"15 14 5 1",
" 	c None",
".	c #000000",
"+	c #9A9A9A",
"@	c #FF0000",
"#	c #FFFFFF",
"       .. @+   ",
"      .+.  @+  ",
"     .+#.   @+ ",
"    .+##. @  @ ",
" ...+###. @+ +@",
".+++####. +@ +@",
".+######. +@ +@",
".+######. +@ +@",
".+.+.###. +@ +@",
" ...#.##. @+ +@",
"  ...#.#. @  @ ",
"    ..+..   @+ ",
"     ..#.  @+  ",
"      ... @+   "};
