/* XPM */
static char *ftpdir_xpm[] = {
"14 14 5 1",
/* colors */
". c none",
"# c #828282",
"a c #ffc125",
"b c #ffffff",
"c c #0a0a0a",
/* pixels */
"..............",
"..............",
"...####.......",
"..#aaaa#......",
"##aaaaaa#####.",
"##bbbbbbbbbb#c",
"##baaaaaaaaa#c",
"##baaaaaaaaa#c",
"##baaaaaaaaa#c",
"##baaaaaaaaa#c",
"##baaaaaaaaa#c",
"##baaaaaaaaa#c",
"#############c",
"..cccccccccccc"};

