/* XPM */
static char * html_xpm[] = {
"14 14 17 1",
" 	c None",
".	c #152E1F",
"+	c #2B744E",
"@	c #8A928E",
"#	c #109A3C",
"$	c #58836D",
"%	c #39A35D",
"&	c #5A6060",
"*	c #6F8E7E",
"=	c #14442C",
"-	c #C6C8C7",
";	c #53A870",
">	c #415A54",
",	c #4F6B63",
"'	c #6DB184",
")	c #96BAA2",
"!	c #085F29",
"    >!!!!>    ",
"  =$;))#)'+.  ",
" &;''%'###'!, ",
" !'#)%'''%)*= ",
">%;''''%-%-++>",
".')#)-;;;'%++.",
".)'%''-)%;+@,.",
".#%-)%)'))$@+.",
"+#'-'''#%++$!>",
" ,)%%--#**+*= ",
" ,)%%;*+@*+,, ",
"  >=**+!++=.  ",
"    >&>&&>    ",
"              "};
