/* XPM */
static char * image_xpm[] = {
"14 15 17 1",
" 	c None",
".	c #302407",
"+	c #53B92A",
"@	c #EA3F3C",
"#	c #2B5E12",
"$	c #215CD0",
"%	c #EFC7D0",
"&	c #C01E1D",
"*	c #ABBDFE",
"=	c #87110F",
"-	c #39951B",
";	c #CA7A86",
">	c #1B4BB2",
",	c #FA8E8E",
"'	c #14336F",
")	c #5E7DE3",
"!	c #72B2F2",
"       **     ",
"     *%**!)   ",
"    !****))'  ",
"    )!))$>''  ",
"    ))))$>''  ",
"  %%)))$>'''  ",
"%%%%))>>>''.  ",
"@,%,;&>>''##  ",
"@@@@=#*!--!-- ",
"@@@&=-++*+-## ",
"@&&&=#+++-### ",
"@&&=.#++-###' ",
"  @&.#---#''' ",
"      +--#''  ",
"        -##   "};
