/* XPM */
static char * incomplete_xpm[] = {
"14 14 17 1",
" 	c None",
".	c #415A54",
"+	c #085F29",
"@	c #53A870",
"#	c #96BAA2",
"$	c #109A3C",
"%	c #6DB184",
"&	c #2B744E",
"*	c #152E1F",
"=	c #39A35D",
"-	c #4F6B63",
";	c #6F8E7E",
">	c #14442C",
",	c #C6C8C7",
"'	c #8A928E",
")	c #58836D",
"!	c #5A6060",
"    .++++.    ",
"    @##$#%&*  ",
"    %=%$$$%+- ",
" +    %%%=#;> ",
".=@   %=,=,&&.",
"*%#$   @@%=&&*",
"*#%=%    @&'-*",
"*$=,#=   #)'&*",
"&$%,%%%    )+.",
" -#==,,$   ;> ",
" -#==@;&'   - ",
"  .>;;&+&&    ",
"    .!.!!.    ",
"              "};
