/* XPM */
static char *local_xpm[] = {
"14 14 3 1",
/* colors */
". c None",
"# c #0a0a0a",
"a c #ffff00",
/* pixels */
"......######..",
".....#aaaa#...",
".....#aaa#....",
"....#aaa#.....",
"....#aa#......",
"...#aaa####...",
"...###aaa#....",
".....#aa#.....",
"....#aa#......",
"...#aa#.......",
"...#a#........",
"..#a#.........",
"..##..........",
". #..........."};
