/* XPM */
static char * notprocessed_xpm[] = {
"14 14 2 1",
" 	c none",
".	c yellow",
"     ....     ",
"    ..  ..    ",
"   ..    ..   ",
"   ..    ..   ",
"         ..   ",
"        ..    ",
"       ...    ",
"      ...     ",
"      ..      ",
"      ..      ",
"      ..      ",
"              ",
"      ..      ",
"      ..      "};
