/* XPM */
static char * redirected_xpm[] = {
"14 14 3 1",
" 	c None",
"%	c #FF0000",
"^	c #660000",
"              ",
"              ",
"        ^%    ",
"        ^%%   ",
"        ^%%%  ",
" ^%%%%%%%%%%% ",
" ^%%%%%%%%%%%%",
" ^%%%%%%%%%%%^",
" ^^^^^^^^%%%^ ",
"        ^%%^  ",
"        ^%^   ",
"        ^^    ",
"              ",
"              "};
