/* XPM */
static char * rejected_xpm[] = {
"14 14 2 1",
" 	c None",
".	c #FFFF00",
"..         ...",
"...       ....",
" ...     .... ",
"  ...   ....  ",
"   ... ....   ",
"    ......    ",
"     ....     ",
"     ....     ",
"    ......    ",
"   ...  ...   ",
"  ...   ....  ",
" ...     .... ",
"...       ....",
"..         ..."};
