/* XPM */
static char * text_xpm[] = {
"14 14 3 1",
" 	c None",
">	c #999999",
"|	c #000000",
"         |||  ",
"        >||>  ",
"       >|||>  ",
"      >|>||   ",
"     >|> ||   ",
"    >||> ||   ",
"  >||>||>||   ",
" |||>  >|||   ",
" >||    >||   ",
"   >     ||   ",
"       ||||   ",
"       >|||   ",
"         >||  ",
"           >  "};
