/* XPM */
static char * video_xpm[] = {
"14 14 7 1",
" 	c None",
".	c #000000",
"+	c #CCCCCC",
"@	c #333333",
"#	c #666666",
"$	c #FFFFFF",
"%	c #999999",
".++.......++.@",
".++.####$.++.@",
"....#%%%$....@",
".++.#%%%$.++.@",
".++.#%%%$.++.@",
"....$$$$$....@",
".++.......++.@",
".++.####$.++.@",
"....#%%%$....@",
".++.#%%%$.++.@",
".++.#%%%$.++.@",
"....$$$$$....@",
".++.......++.@",
".++.......++.@"};
