/* XPM */
static char * break_xpm[] = {
"48 48 217 2",
"  	c None",
". 	c #CBCBCB",
"+ 	c #CACACA",
"@ 	c #CCCCCC",
"# 	c #CDCDCD",
"$ 	c #CFCFCF",
"% 	c #D0D0D0",
"& 	c #D1D1D1",
"* 	c #D2D2D2",
"= 	c #D3D3D3",
"- 	c #D4D4D4",
"; 	c #D5D5D5",
"> 	c #D8D8D8",
", 	c #D9D9D9",
"' 	c #DBDBDB",
") 	c #DCDCDC",
"! 	c #DADADA",
"~ 	c #D6D6D6",
"{ 	c #E0E0E0",
"] 	c #E1E1E1",
"^ 	c #E2E2E2",
"/ 	c #E3E3E3",
"( 	c #DDDDDD",
"_ 	c #E4E4E4",
": 	c #E7E7E7",
"< 	c #E9E9E9",
"[ 	c #EAEAEA",
"} 	c #EBEBEB",
"| 	c #E5E5E5",
"1 	c #DEDEDE",
"2 	c #EEEEEE",
"3 	c #EFEFEF",
"4 	c #F0F0F0",
"5 	c #ECECEC",
"6 	c #F3F3F3",
"7 	c #F5F5F5",
"8 	c #F4F4F4",
"9 	c #EDEDED",
"0 	c #F8F8F8",
"a 	c #FBFBFB",
"b 	c #F7F7F7",
"c 	c #F6F6F6",
"d 	c #FAFAFA",
"e 	c #FCFCFC",
"f 	c #E6E6E6",
"g 	c #C9C9C9",
"h 	c #F2F2F2",
"i 	c #FDFDFD",
"j 	c #C8C8C8",
"k 	c #C7C7C7",
"l 	c #FEFEFE",
"m 	c #C5C5C5",
"n 	c #C3C3C3",
"o 	c #C4C4C4",
"p 	c #C0C0C0",
"q 	c #BFBFBF",
"r 	c #C2C2C2",
"s 	c #000000",
"t 	c #BBBBBB",
"u 	c #B9B9B9",
"v 	c #BCBCBC",
"w 	c #BEBEBE",
"x 	c #FFFFFF",
"y 	c #B1B1B1",
"z 	c #B7B7B7",
"A 	c #B8B8B8",
"B 	c #C1C1C1",
"C 	c #B5B5B5",
"D 	c #B2B2B2",
"E 	c #B3B3B3",
"F 	c #EBEBE9",
"G 	c #B4B5B0",
"H 	c #A0A29B",
"I 	c #9FA099",
"J 	c #AAACA5",
"K 	c #C6C7C2",
"L 	c #F5F6F4",
"M 	c #AEAEAE",
"N 	c #ADADAD",
"O 	c #D1D2CF",
"P 	c #979890",
"Q 	c #9FA199",
"R 	c #A8A9A1",
"S 	c #ADAFA6",
"T 	c #B2B3AB",
"U 	c #B6B8B0",
"V 	c #BABCB4",
"W 	c #11110F",
"X 	c #B6B6B6",
"Y 	c #AFAFAF",
"Z 	c #A9A9A9",
"` 	c #A7A7A7",
" .	c #A8A8A8",
"..	c #ECECEA",
"+.	c #989991",
"@.	c #A1A39B",
"#.	c #B0B1A9",
"$.	c #BBBCB5",
"%.	c #BFC0B8",
"&.	c #C2C4BC",
"*.	c #C1C2BA",
"=.	c #D1D1D0",
"-.	c #A5A5A5",
";.	c #A6A6A6",
">.	c #ABABAB",
",.	c #B0B0B0",
"'.	c #9C9E96",
").	c #C5C7BF",
"!.	c #CBCCC5",
"~.	c #CDCEC6",
"{.	c #C5C7BE",
"].	c #DEDFDA",
"^.	c #939393",
"/.	c #A0A0A0",
"(.	c #A1A1A1",
"_.	c #AAAAAA",
":.	c #9E9F98",
"<.	c #A1A29A",
"[.	c #B5B7AF",
"}.	c #CFD1C8",
"|.	c #D0D2CA",
"1.	c #CCCEC6",
"2.	c #D1D3CB",
"3.	c #A4A4A4",
"4.	c #9D9D9D",
"5.	c #9A9B93",
"6.	c #A6A8A0",
"7.	c #C8CAC1",
"8.	c #D6D7D0",
"9.	c #D5D7CF",
"0.	c #D4D5CD",
"a.	c #D3D5CD",
"b.	c #9C9C9C",
"c.	c #9A9A9A",
"d.	c #A5A69F",
"e.	c #A8A9A2",
"f.	c #BABBB3",
"g.	c #C9CAC2",
"h.	c #94958E",
"i.	c #D6D8D0",
"j.	c #D7D9D1",
"k.	c #DBDCD5",
"l.	c #989898",
"m.	c #969696",
"n.	c #9F9F9F",
"o.	c #BFC0BB",
"p.	c #A8AAA2",
"q.	c #C4C5BD",
"r.	c #B0B2AA",
"s.	c #D7D8D0",
"t.	c #E6E7E2",
"u.	c #BABABA",
"v.	c #959595",
"w.	c #F2F2F1",
"x.	c #ADAEA6",
"y.	c #B1B3AB",
"z.	c #BCBDB5",
"A.	c #C6C8C0",
"B.	c #CFD0C9",
"C.	c #D4D6CE",
"D.	c #D5D6CE",
"E.	c #D6D7CF",
"F.	c #8F8F8F",
"G.	c #999999",
"H.	c #A2A2A2",
"I.	c #E4E4E1",
"J.	c #B3B4AC",
"K.	c #B7B8B0",
"L.	c #BCBEB6",
"M.	c #C4C6BE",
"N.	c #C9CBC3",
"O.	c #CBCCC4",
"P.	c #D0D1C9",
"Q.	c #D4D5D2",
"R.	c #4F4F4F",
"S.	c #979797",
"T.	c #909090",
"U.	c #8E8E8E",
"V.	c #F5F5F4",
"W.	c #CFD0CB",
"X.	c #C0C2BB",
"Y.	c #C0C2BA",
"Z.	c #C8C9C2",
"`.	c #D9DAD5",
" +	c #D9D9D8",
".+	c #150B0C",
"++	c #9F3C44",
"@+	c #B5444E",
"#+	c #949494",
"$+	c #8D8D8D",
"%+	c #8C8C8C",
"&+	c #BB565F",
"*+	c #812F36",
"=+	c #8A8A8A",
"-+	c #888888",
";+	c #8B8B8B",
">+	c #7A7A7A",
",+	c #BB555D",
"'+	c #90353D",
")+	c #858585",
"!+	c #878787",
"~+	c #828282",
"{+	c #848484",
"]+	c #BD5A62",
"^+	c #838383",
"/+	c #7F7F7F",
"(+	c #BC5760",
"_+	c #A13C45",
":+	c #868686",
"<+	c #919191",
"[+	c #C0636B",
"}+	c #A83F48",
"|+	c #808080",
"1+	c #7E7E7E",
"2+	c #7D7D7D",
"3+	c #7C7C7C",
"4+	c #9E9E9E",
"                                      . . + . . . + + . +                                       ",
"                                # $ % & & & & * & & % % $ $ # #                                 ",
"                          # $ % & * = - ; ; ; ; - - = = * & % $ # @ @                           ",
"                        $ & & = - > , ' ' ' ) ) ' ! > > ; - & % # # # @                         ",
"                    # % * - ~ ! ) { ] ] ^ / / / ] ] ( ' , > - = * & $ # @ .                     ",
"                  $ & = ~ ! ( ] _ : < < [ } } < : | ^ { 1 ) , ~ ; * % # # @ .                   ",
"                $ * - > ) ] | : } 2 3 3 4 4 4 2 5 < | / ] 1 ' ~ ; * % # # @ . .                 ",
"              $ & ; ! 1 / < 5 3 6 7 7 7 7 7 8 4 9 } : | ^ 1 ' ~ - = % # # @ . . .               ",
"            $ & ; ' ] | } 3 8 7 0 a 0 b b c 8 4 2 } < | / 1 ' ~ - = $ @ # @ + . . +             ",
"          $ * ; ' { | 5 4 7 d a a e d 0 b 7 8 4 3 5 f | ^ ( ! ~ = & @ + . . g g g g +           ",
"        # & ; ! ] f 5 h b a i i e a d c 7 6 4 9 } : _ _ ] ' > ; & # + j j k k j j j g +         ",
"        % - , 1 _ } h 0 e l l i a 0 c 6 4 2 } < | _ ^ ^ ( ! > = $ + j m n n n o m k j g         ",
"      $ * ~ ) / [ 4 c e l l i a b 8 4 9 < f / ^ ] { 1 ( ! > ; % . g k n p q p r r o k j g       ",
"    # % - ! ] : 4 c e l l i a b 6 9 < s s s s s ) ' , > ; ; = $ . j o p t u v w q p n m j g     ",
"    $ * ~ ( | 9 8 d e l i a c 4 5 s s ; x x ; y s s ; ; - & % # + k r w u z z A u v B o k j     ",
"    % - ! ] < 4 c e e e d c 4 [ s ; x x x x x x ; y s * & $ $ @ g m r v A C D E E A w r o k     ",
"  # & ~ ' _ 5 6 0 a e d b 4 [ s ; x F G H I J K L ; ; s $ # @ . g m B v z y M N M E u w r m j   ",
"  $ * ~ ( f 2 8 0 a d b 8 5 s y x O P Q R S T U V W ; y s @ . + j m B v X Y Z `  .Y C u p n k   ",
"  % = , ] < 4 7 d d b 8 2 f s ; ..+.@.#.$.%.&.*.s s =.; s . . + j m r t C M Z -.;.>.,.X w B m   ",
". % - ' ^ [ 4 c 0 b 7 4 [ s y 1 G '.s s ).!.~.s s {.].; ^.s + + g m r t C N ;./.(.;._.y u p n k ",
". & ; ) / } 4 7 7 7 h 9 | s ; x :.<.[.s s }.s s |.1.2.; ^.s + + j m B v C >.3.4.4./.;.M z w r k ",
". & ; ' / [ 3 6 8 8 4 < ^ s 1 x 5.6.$.7.s s s 8.9.0.a.; ^.s + + g k r v C _.(.b.c.b.(._.C t r m ",
". & ; ) / < 9 4 h h 3 : ] s ; x d.e.f.g.h.s +.i.j.j.k.; ^.s + + j k r t E Z /.l.m.l.n. .y u p o ",
". & ; ) ^ < 9 3 3 3 5 | 1 s y 1 o.p.[.q.1.r.s.i.j.j.t.; ^.s . + j m B u.D ` 4.m.^.v.b.;.,.z q o ",
". & ; ' ] f } 9 9 5 < ] ) , s ; w.x.y.z.A.B.C.D.E.j.=.; s . . + j o B u.,.;.c.^.F.^.G.H.N X w o ",
"+ & ; ! { _ < } [ < f { ) , s y 1 I.J.K.L.M.N.O.P.Q.; R.s . . g s s q A M 3.S.T.U.T.S.(.N X q o ",
"+ % - , 1 / f < : f _ { ' > ; s u 1 V.W.X.Y.Z.`. +; y .+++s + s @+s w C _./.#+$+%+U.v./.N X q n ",
"+ % * ~ ) ] / | _ / ^ 1 ' > ~ ; s u 1 1 x x 1 ; y ^.s s @+s s &+*+s u.y ` c.T.=+-+;+#+(.N X q n ",
"+ $ & ; , ( ] ] ^ ] ] ) ! > ; - * s s y u u y >+s s . . s @+,+'+s w z N (.m.$+)+!+%+#+/.N z q o ",
"  # % = > ' ( ( ( ( ) ! , ~ = * & & $ s s s s s . . + + s @+@+s p u.y ` b.T.-+~+{+$+m.3.,.u p   ",
"  # % = ; , ! ' ! ! > , ~ ; * = * & $ # # @ . + + + + s ]+@+@+s v C >./.v.;+^+/+{+U.l.-.D t B   ",
"  @ $ & - ; > > , > ~ - = * & & & $ # # @ . + g g g s (+'+s s _+s M 3.l.U.:+~+~+!+<+4.Z C v r   ",
"    # % & - ; ; - - * % $ # # @ @ . . + g g j j j s [+'+s B s }+s -.c.T.!+|+1+^+=+v.H.M A q     ",
"    @ # % & * = * $ @ . . . g g g j j j k m k m m s s s q u.C s s 4.<+-+~+1+1+)+$+G.` y u.B     ",
"    . # $ % % & & $ @ g j m n n n n n r r r r r B q w t z y N -.4.^.=+^+2+1+^+=+#+/.N X w n     ",
"      @ # $ $ $ @ . j k n p w w w w v t v t t u.u A X y N ` (.G.F.!+|+1+3+/+!+F.c.` D u p       ",
"        @ @ # # @ + k n p t u A A X C C C C D D ,.M >.` /.b.v.U.:+|+3+2+1+)+U.l.H.M z w         ",
"        . @ @ @ . . j n w u.z C y Y N N >._.Z Z ` 3.n.c.v.T.;+:+|+2+2+/+{+%+S.(._.E t B         ",
"          . . + + g k n q u.X y M >. .;.3.(./.4+b.S.^.F.%+-+{+|+2+1+~+)+$+m.n.Z E u.p           ",
"            . + . + j o B w A E N  .-./.4+b.G.v.<+U.%+=+!+^+|+|+~+)+=+F.l.H._.D u.q             ",
"              . . + j o r p t X ,._.-./.b.l.v.<+U.;+-+-+:+)+)+!+=+F.#+b.-.>.D u q               ",
"                + g g k o r w A E Y Z -./.4.l.m.^.F.U.$+%+$+F.<+v.G.n.` M E u.q                 ",
"                  + g j k o B v A E Y _.;.H.n.b.G.S.m.v.v.S.G.b./.;._.y z t p                   ",
"                    + g j m n B w u X y N Z ;.3.(./.n.n.(.3.-.Z N y X u.w B                     ",
"                        g j k o r q v u X C y Y N N >.N Y Y y E A u.w B                         ",
"                          g j k o n B p w t u.u A z z z A u u.v q B n                           ",
"                                j k m o r p p q q v w q q p B n                                 ",
"                                      k k o o o n n n o o                                       "};
