/* XPM */
static char * configure_xpm[] = {
"48 48 202 2",
"  	c None",
". 	c #CBCBCB",
"+ 	c #CACACA",
"@ 	c #CCCCCC",
"# 	c #CDCDCD",
"$ 	c #CFCFCF",
"% 	c #D0D0D0",
"& 	c #D1D1D1",
"* 	c #D2D2D2",
"= 	c #D3D3D3",
"- 	c #D4D4D4",
"; 	c #D5D5D5",
"> 	c #D8D8D8",
", 	c #D9D9D9",
"' 	c #DBDBDB",
") 	c #DCDCDC",
"! 	c #DADADA",
"~ 	c #D6D6D6",
"{ 	c #E0E0E0",
"] 	c #E1E1E1",
"^ 	c #E2E2E2",
"/ 	c #E3E3E3",
"( 	c #DDDDDD",
"_ 	c #E4E4E4",
": 	c #E7E7E7",
"< 	c #E9E9E9",
"[ 	c #EAEAEA",
"} 	c #EBEBEB",
"| 	c #E5E5E5",
"1 	c #DEDEDE",
"2 	c #EEEEEE",
"3 	c #EFEFEF",
"4 	c #F0F0F0",
"5 	c #ECECEC",
"6 	c #F3F3F3",
"7 	c #F5F5F5",
"8 	c #F4F4F4",
"9 	c #EDEDED",
"0 	c #F8F8F8",
"a 	c #FBFBFB",
"b 	c #F7F7F7",
"c 	c #F6F6F6",
"d 	c #FAFAFA",
"e 	c #FCFCFC",
"f 	c #E6E6E6",
"g 	c #C9C9C9",
"h 	c #F2F2F2",
"i 	c #FDFDFD",
"j 	c #C8C8C8",
"k 	c #C7C7C7",
"l 	c #FEFEFE",
"m 	c #C5C5C5",
"n 	c #C3C3C3",
"o 	c #C4C4C4",
"p 	c #C0C0C0",
"q 	c #BFBFBF",
"r 	c #C2C2C2",
"s 	c #BBBBBB",
"t 	c #B9B9B9",
"u 	c #BCBCBC",
"v 	c #BEBEBE",
"w 	c #D7D7D7",
"x 	c #B7B7B7",
"y 	c #B8B8B8",
"z 	c #C1C1C1",
"A 	c #000000",
"B 	c #B4B4B4",
"C 	c #B2B2B2",
"D 	c #B3B3B3",
"E 	c #CECECE",
"F 	c #AAAAAA",
"G 	c #B1B1B1",
"H 	c #AEAEAE",
"I 	c #ADADAD",
"J 	c #858585",
"K 	c #979797",
"L 	c #DCCB94",
"M 	c #A4A4A4",
"N 	c #A3A3A3",
"O 	c #A5A5A5",
"P 	c #A6A6A6",
"Q 	c #A8A8A8",
"R 	c #AFAFAF",
"S 	c #B5B5B5",
"T 	c #7A7A7A",
"U 	c #989898",
"V 	c #8E7D45",
"W 	c #8A8A8A",
"X 	c #8F8F8F",
"Y 	c #9A9A9A",
"Z 	c #A1A1A1",
"` 	c #ABABAB",
" .	c #B0B0B0",
"..	c #B6B6B6",
"+.	c #606060",
"@.	c #777777",
"#.	c #717171",
"$.	c #7E7E7E",
"%.	c #909090",
"&.	c #9B9B9B",
"*.	c #9D9D9D",
"=.	c #A0A0A0",
"-.	c #AB5959",
";.	c #878787",
">.	c #6C6C6C",
",.	c #626262",
"'.	c #666666",
").	c #8D8D8D",
"!.	c #9C9C9C",
"~.	c #A84F4F",
"{.	c #A7A7A7",
"].	c #5E5E5E",
"^.	c #5B5B5B",
"/.	c #6E6E6E",
"(.	c #848484",
"_.	c #939393",
":.	c #999999",
"<.	c #A65757",
"[.	c #464646",
"}.	c #4D4D4D",
"|.	c #585858",
"1.	c #6B6B6B",
"2.	c #818181",
"3.	c #969696",
"4.	c #9F9F9F",
"5.	c #DACACA",
"6.	c #AC5757",
"7.	c #C48B8B",
"8.	c #AA6C6C",
"9.	c #484848",
"0.	c #7B7B7B",
"a.	c #959595",
"b.	c #E9DDDD",
"c.	c #A65353",
"d.	c #C6C6C6",
"e.	c #838383",
"f.	c #A2A2A2",
"g.	c #D4C38D",
"h.	c #D6D6D0",
"i.	c #C0C0BB",
"j.	c #828279",
"k.	c #797979",
"l.	c #929292",
"m.	c #8E8E8E",
"n.	c #AD8E30",
"o.	c #756020",
"p.	c #C5C5BF",
"q.	c #A7A79A",
"r.	c #818174",
"s.	c #808080",
"t.	c #8C8C8C",
"u.	c #BABABA",
"v.	c #DFE1E1",
"w.	c #D6E1E0",
"x.	c #060605",
"y.	c #A3A395",
"z.	c #3F3F3F",
"A.	c #565656",
"B.	c #727272",
"C.	c #888888",
"D.	c #898989",
"E.	c #8B8B8B",
"F.	c #949494",
"G.	c #8B8B7D",
"H.	c #7E7E71",
"I.	c #B2B9B6",
"J.	c #D9D9D2",
"K.	c #D9D9D3",
"L.	c #DADAD4",
"M.	c #DADAD9",
"N.	c #323232",
"O.	c #555555",
"P.	c #707070",
"Q.	c #2E2E2E",
"R.	c #343434",
"S.	c #4F4F4F",
"T.	c #636363",
"U.	c #868686",
"V.	c #828282",
"W.	c #313131",
"X.	c #393939",
"Y.	c #474747",
"Z.	c #686868",
"`.	c #7F7F7F",
" +	c #353535",
".+	c #616161",
"++	c #737373",
"@+	c #919191",
"#+	c #A9A9A9",
"$+	c #595959",
"%+	c #6A6A6A",
"&+	c #414141",
"*+	c #3B3B3B",
"=+	c #757575",
"-+	c #6D6D6D",
";+	c #535353",
">+	c #5C5C5C",
",+	c #7D7D7D",
"'+	c #ACACAC",
")+	c #767676",
"!+	c #7C7C7C",
"~+	c #9E9E9E",
"                                      . . + . . . + + . +                                       ",
"                                # $ % & & & & * & & % % $ $ # #                                 ",
"                          # $ % & * = - ; ; ; ; - - = = * & % $ # @ @                           ",
"                        $ & & = - > , ' ' ' ) ) ' ! > > ; - & % # # # @                         ",
"                    # % * - ~ ! ) { ] ] ^ / / / ] ] ( ' , > - = * & $ # @ .                     ",
"                  $ & = ~ ! ( ] _ : < < [ } } < : | ^ { 1 ) , ~ ; * % # # @ .                   ",
"                $ * - > ) ] | : } 2 3 3 4 4 4 2 5 < | / ] 1 ' ~ ; * % # # @ . .                 ",
"              $ & ; ! 1 / < 5 3 6 7 7 7 7 7 8 4 9 } : | ^ 1 ' ~ - = % # # @ . . .               ",
"            $ & ; ' ] | } 3 8 7 0 a 0 b b c 8 4 2 } < | / 1 ' ~ - = $ @ # @ + . . +             ",
"          $ * ; ' { | 5 4 7 d a a e d 0 b 7 8 4 3 5 f | ^ ( ! ~ = & @ + . . g g g g +           ",
"        # & ; ! ] f 5 h b a i i e a d c 7 6 4 9 } : _ _ ] ' > ; & # + j j k k j j j g +         ",
"        % - , 1 _ } h 0 e l l i a 0 c 6 4 2 } < | _ ^ ^ ( ! > = $ + j m n n n o m k j g         ",
"      $ * ~ ) / [ 4 c e l l i a b 8 4 9 < f / ^ ] { 1 ( ! > ; % . g k n p q p r r o k j g       ",
"    # % - ! ] : 4 c e l l i a b 6 9 < _ ] { ) ' ) ' , > ; ; = $ . j o p s t u v q p n m j g     ",
"    $ * ~ ( | 9 8 d e l i a c 4 5 f ] ) ! ! ! ! ! w = * & $ $ # + k r v t x x y t u z o k j     ",
"    % - ! ] < 4 c e e e d c 4 [ _ 1 ! , > > ~ - & A A n n m + + j o p s x B C D D y v r o k     ",
"  # & ~ ' _ 5 6 0 a e d b 4 [ _ ( > ~ ~ - * & A A | E A F C v m k A t B G H I I H D t v r m j   ",
"  $ * ~ ( f 2 8 0 a d b 8 5 _ 1 > - * * $ A A # | | | A J K I u A L A M N O O P Q R S t p n k   ",
"  % = , ] < 4 7 d d b 8 2 f { , - $ A A A ) | | | | | k A T U A L V A W X Y Z N P `  ...v z m   ",
". % - ' ^ [ 4 c 0 b 7 4 [ ^ ! * A A # | | | | $ | z | | A +.A L V A @.#.$.%.&.*.=.P F G t p n k ",
". & ; ) / } 4 7 7 7 h 9 | 1 ; A ) | | | | -.| , | $ ;.| ' A L V A >.,.'.T ).U Y !.=.P H x v r k ",
". & ; ' / [ 3 6 8 8 4 < ^ ) = A - | | | | ~.{.| &.;.| | A L V A ].^.]./.(._.:.Y Y !.Z F S s r m ",
". & ; ) / < 9 4 h h 3 : ] ' = m A | | 7 6 <.| /.| | | A L V A [.}.|.1.2._.!.!.K 3.U 4.Q G t p o ",
". & ; ) ^ < 9 3 3 3 5 | 1 , % o A ) 5.6.7.8.| | | | A L V A , A 9.].0._.Z =.!.3._.a.!.P  .x q o ",
". & ; ' ] f } 9 9 5 < ] ) , * j G A | b.c.<.| | | A L V A $ | d.A ,.e.&.M f.:._.X _.:.f.I ..v o ",
"+ & ; ! { _ < } [ < f { ) , = # u A - | | | | | A g.V A , _ h.i.j.A k.l.4.=.3.%.m.%.K Z I ..q o ",
"+ % - , 1 / f < : f _ { ' > - % d.I A | | | 7 n.o.A A p.q.q.q.q.r.A '.s.l.U l.).t.m.a.=.I ..q n ",
"+ % * ~ ) ] / | _ / ^ 1 ' > ~ = @ u.A ) | v.w.x.A y.y.q.q.q.q.j A z.A.B.C.X ).D.C.E.F.Z I ..q n ",
"+ $ & ; , ( ] ] ^ ] ] ) ! > ; = E n ` A | q.G.H.I.J.K.L.| M.A A N.z.O.P.e.E.W (.;.t.F.=.I x q o ",
"  # % = > ' ( ( ( ( ) ! , ~ = * $ g x A - | | | | | | | j A Q.R.z.S.T.k.;.D.U.V.(.).3.M  .t p   ",
"  # % = ; , ! ' ! ! > , ~ ; * = & # p Q A | | | | | | A A W.X.Y.A.Z.k.J D.C.V.`.(.m.U O C s z   ",
"  @ $ & - ; > > , > ~ - = * & & & # m S A ) | | | j A Q. +z.S..+++V.W t.W J V.V.;.@+*.#+S u r   ",
"    # % & - ; ; - - * % $ # # @ @ + k u O A | ! A A N.X.Y.$+%+$.E.l.%.t.U.s.$.e.W a.f.H y q     ",
"    @ # % & * = * $ @ . . . g g g j d.p  .F.A A &+*+&+S.T.=+;._.:.3.m.;.V.$.$.J ).:.{.G u.z     ",
"    . # $ % % & & $ @ g j m n n n n r q x M D.-+$+;+>+>.$.).:.&.:.l.D.e.,+$.e.W F.=.I ..v n     ",
"      @ # $ $ $ @ . j k n p v v v v u u.x '+&.U.)+++T U.@+:.Y 3.m.;.s.$.!+`.;.X Y {.C t p       ",
"        @ @ # # @ + k n p s t y y ..S S B R M Y %.t.%.a.3.U F.).U.s.!+,+$.J m.U f.H x v         ",
"        . @ @ @ . . j n v u.x S G R I I ` #+O =.&.U 3.a._.X E.U.s.,+,+`.(.t.K Z F D s z         ",
"          . . + + g k n q u...G H ` Q P M Z 4.!.Y F.@+m.E.C.(.s.,+$.V.J ).3.4.#+D u.p           ",
"            . + . + j o z v y D I Q O =.~+!.:.a.@+m.t.W ;.e.s.s.V.J W X U f.F C u.q             ",
"              . . + j o r p s .. .F O =.!.U a.@+m.E.C.C.U.J J ;.W X F.!.O ` C t q               ",
"                + g g k o r v y D R #+O =.*.U 3._.X m.).t.).X @+a.:.4.{.H D u.q                 ",
"                  + g j k o z u y D R F P f.4.!.:.K 3.a.a.K :.!.=.P F G x s p                   ",
"                    + g j m n z v t ..G I #+P M Z =.4.4.Z M O #+I G ..u.v z                     ",
"                        g j k o r q u t ..S G R I I ` I R R G D y u.v z                         ",
"                          g j k o n z p v s u.t y x x x y t u.u q z n                           ",
"                                j k m o r p p q q u v q q p z n                                 ",
"                                      k k o o o n n n o o                                       "};
