/* XPM */
static char * exit_xpm[] = {
"48 48 118 2",
"  	c None",
". 	c #CBCBCB",
"+ 	c #CACACA",
"@ 	c #CDCDCD",
"# 	c #CFCFCF",
"$ 	c #D0D0D0",
"% 	c #D1D1D1",
"& 	c #D2D2D2",
"* 	c #D3D3D3",
"= 	c #D4D4D4",
"- 	c #D5D5D5",
"; 	c #CCCCCC",
"> 	c #D8D8D8",
", 	c #D9D9D9",
"' 	c #DBDBDB",
") 	c #DCDCDC",
"! 	c #DADADA",
"~ 	c #D6D6D6",
"{ 	c #E0E0E0",
"] 	c #E1E1E1",
"^ 	c #E2E2E2",
"/ 	c #E3E3E3",
"( 	c #DDDDDD",
"_ 	c #E4E4E4",
": 	c #E7E7E7",
"< 	c #E9E9E9",
"[ 	c #EAEAEA",
"} 	c #EBEBEB",
"| 	c #E5E5E5",
"1 	c #DEDEDE",
"2 	c #EEEEEE",
"3 	c #EFEFEF",
"4 	c #F0F0F0",
"5 	c #ECECEC",
"6 	c #F3F3F3",
"7 	c #F5F5F5",
"8 	c #F4F4F4",
"9 	c #EDEDED",
"0 	c #F8F8F8",
"a 	c #FBFBFB",
"b 	c #F7F7F7",
"c 	c #F6F6F6",
"d 	c #FAFAFA",
"e 	c #FCFCFC",
"f 	c #E6E6E6",
"g 	c #C9C9C9",
"h 	c #F2F2F2",
"i 	c #FDFDFD",
"j 	c #C8C8C8",
"k 	c #C7C7C7",
"l 	c #FEFEFE",
"m 	c #C5C5C5",
"n 	c #C3C3C3",
"o 	c #C4C4C4",
"p 	c #C0C0C0",
"q 	c #BFBFBF",
"r 	c #C2C2C2",
"s 	c #BBBBBB",
"t 	c #B9B9B9",
"u 	c #BCBCBC",
"v 	c #BEBEBE",
"w 	c #B7B7B7",
"x 	c #B8B8B8",
"y 	c #C1C1C1",
"z 	c #B5B5B5",
"A 	c #B2B2B2",
"B 	c #B3B3B3",
"C 	c #B1B1B1",
"D 	c #AEAEAE",
"E 	c #ADADAD",
"F 	c #B6B6B6",
"G 	c #AFAFAF",
"H 	c #A9A9A9",
"I 	c #A7A7A7",
"J 	c #A8A8A8",
"K 	c #000000",
"L 	c #A5A5A5",
"M 	c #A6A6A6",
"N 	c #ABABAB",
"O 	c #B0B0B0",
"P 	c #A0A0A0",
"Q 	c #A1A1A1",
"R 	c #AAAAAA",
"S 	c #A4A4A4",
"T 	c #9D9D9D",
"U 	c #9C9C9C",
"V 	c #9A9A9A",
"W 	c #989898",
"X 	c #969696",
"Y 	c #9F9F9F",
"Z 	c #BABABA",
"` 	c #939393",
" .	c #959595",
"..	c #8F8F8F",
"+.	c #999999",
"@.	c #A2A2A2",
"#.	c #979797",
"$.	c #909090",
"%.	c #8E8E8E",
"&.	c #949494",
"*.	c #8D8D8D",
"=.	c #8C8C8C",
"-.	c #8A8A8A",
";.	c #888888",
">.	c #8B8B8B",
",.	c #858585",
"'.	c #878787",
").	c #828282",
"!.	c #848484",
"~.	c #838383",
"{.	c #7F7F7F",
"].	c #868686",
"^.	c #919191",
"/.	c #808080",
"(.	c #7E7E7E",
"_.	c #7D7D7D",
":.	c #7C7C7C",
"<.	c #9E9E9E",
"                                      . . + . . . + + . +                                       ",
"                                @ # $ % % % % & % % $ $ # # @ @                                 ",
"                          @ # $ % & * = - - - - = = * * & % $ # @ ; ;                           ",
"                        # % % * = > , ' ' ' ) ) ' ! > > - = % $ @ @ @ ;                         ",
"                    @ $ & = ~ ! ) { ] ] ^ / / / ] ] ( ' , > = * & % # @ ; .                     ",
"                  # % * ~ ! ( ] _ : < < [ } } < : | ^ { 1 ) , ~ - & $ @ @ ; .                   ",
"                # & = > ) ] | : } 2 3 3 4 4 4 2 5 < | / ] 1 ' ~ - & $ @ @ ; . .                 ",
"              # % - ! 1 / < 5 3 6 7 7 7 7 7 8 4 9 } : | ^ 1 ' ~ = * $ @ @ ; . . .               ",
"            # % - ' ] | } 3 8 7 0 a 0 b b c 8 4 2 } < | / 1 ' ~ = * # ; @ ; + . . +             ",
"          # & - ' { | 5 4 7 d a a e d 0 b 7 8 4 3 5 f | ^ ( ! ~ * % ; + . . g g g g +           ",
"        @ % - ! ] f 5 h b a i i e a d c 7 6 4 9 } : _ _ ] ' > - % @ + j j k k j j j g +         ",
"        $ = , 1 _ } h 0 e l l i a 0 c 6 4 2 } < | _ ^ ^ ( ! > * # + j m n n n o m k j g         ",
"      # & ~ ) / [ 4 c e l l i a b 8 4 9 < f / ^ ] { 1 ( ! > - $ . g k n p q p r r o k j g       ",
"    @ $ = ! ] : 4 c e l l i a b 6 9 < _ ] { ) ' ) ' , > - - * # . j o p s t u v q p n m j g     ",
"    # & ~ ( | 9 8 d e l i a c 4 5 f ] ) ! ! ! ! ! > - - = % $ @ + k r v t w w x t u y o k j     ",
"    $ = ! ] < 4 c e e e d c 4 [ _ 1 ! , > > ~ ~ = = & & % # # ; g m r u x z A B B x v r o k     ",
"  @ % ~ ' _ 5 6 0 a e d b 4 [ _ ( > ~ ~ - = = = & & % $ # @ ; . g m y u w C D E D B t v r m j   ",
"  # & ~ ( f 2 8 0 a d b 8 5 _ 1 > = = = = * * & & % $ # @ ; . + j m y u F G H I J G z t p n k   ",
"  $ * , ] < 4 7 d d b 8 2 f { , - & * K & * * * K K $ @ ; . . + j m r s z D H L M N O F v y m   ",
". $ = ' ^ [ 4 c 0 b 7 4 [ ^ ! = & % & K K * * K K K K ; ; . + + g m r s z E M P Q M R C t p n k ",
". % - ) / } 4 7 7 7 h 9 | 1 ~ * * * & = K K * K K K @ ; ; ; + + j m y u z N S T T P M D w v r k ",
". % - ' / [ 3 6 8 8 4 < ^ ) ~ * * * * = K K K K K # @ ; . . + + g k r u z R Q U V U Q R z s r m ",
". % - ) / < 9 4 h h 3 : ] ' ~ = * & * = * K K K # # ; . . . + + j k r s B H P W X W Y J C t p o ",
". % - ) ^ < 9 3 3 3 5 | 1 , = * * * * = = K K K K @ ; . . . . + j m y Z A I T X `  .U M O w q o ",
". % - ' ] f } 9 9 5 < ] ) , - = * * * = K K K K K K . . . . . + j o y Z O M V ` ..` +.@.E F v o ",
"+ % - ! { _ < } [ < f { ) , - = = = * * K K $ K K K K . . . . g k n q x D S #.$.%.$.#.Q E F q o ",
"+ $ = , 1 / f < : f _ { ' > - * = * & K K % # @ K K K K . . + g k r v z R P &.*.=.%. .P E F q n ",
"+ $ & ~ ) ] / | _ / ^ 1 ' > ~ - = * % K % # @ ; ; K K . . . + j o y Z C I V $.-.;.>.&.Q E F q n ",
"+ # % - , ( ] ] ^ ] ] ) ! > - = & & % % $ @ @ ; . . . . . + j m n v w E Q X *.,.'.=.&.P E w q o ",
"  @ $ * > ' ( ( ( ( ) ! , ~ * & % % # # @ ; @ ; . . + + + j m n p Z C I U $.;.).!.*.X S O t p   ",
"  @ $ * - , ! ' ! ! > , ~ - & * & % # @ @ ; . + + + + g j k o r u z N P  .>.~.{.!.%.W L A s y   ",
"  ; # % = - > > , > ~ = * & % % % # @ @ ; . + g g g j j k o r u F D S W %.].).).'.^.T H z u r   ",
"    @ $ % = - - = = & $ # @ @ ; ; . . + g g j j j j k m n y s F D L V $.'./.(.~.-. .@.D x q     ",
"    ; @ $ % & * & # ; . . . g g g j j j k m k m m o n y q Z z G I T ^.;.).(.(.,.*.+.I C Z y     ",
"    . @ # $ $ % % # ; g j m n n n n n r r r r r y q v s w C E L T ` -.~._.(.~.-.&.P E F v n     ",
"      ; @ # # # ; . j k n p v v v v u s u s s Z t x F C E I Q +...'./.(.:.{.'...V I A t p       ",
"        ; ; @ @ ; + k n p s t x x F z z z z A A O D N I P U  .%.]./.:._.(.,.%.W @.D w v         ",
"        . ; ; ; . . j n v Z w z C G E E N R H H I S Y V  .$.>.]./._._.{.!.=.#.Q R B s y         ",
"          . . + + g k n q Z F C D N J M S Q P <.U #.` ..=.;.!./._.(.).,.*.X Y H B Z p           ",
"            . + . + j o y v x B E J L P <.U +. .^.%.=.-.'.~././.).,.-...W @.R A Z q             ",
"              . . + j o r p s F O R L P U W  .^.%.>.;.;.].,.,.'.-...&.U L N A t q               ",
"                + g g k o r v x B G H L P T W X ` ..%.*.=.*...^. .+.Y I D B Z q                 ",
"                  + g j k o y u x B G R M @.Y U +.#.X  . .#.+.U P M R C w s p                   ",
"                    + g j m n y v t F C E H M S Q P Y Y Q S L H E C F Z v y                     ",
"                        g j k o r q u t F z C G E E N E G G C B x Z v y                         ",
"                          g j k o n y p v s Z t x w w w x t Z u q y n                           ",
"                                j k m o r p p q q u v q q p y n                                 ",
"                                      k k o o o n n n o o                                       "};
