/* XPM */
static char * gobg_xpm[] = {
"48 48 121 2",
"  	c None",
". 	c #CBCBCB",
"+ 	c #CACACA",
"@ 	c #CDCDCD",
"# 	c #CFCFCF",
"$ 	c #D0D0D0",
"% 	c #D1D1D1",
"& 	c #D2D2D2",
"* 	c #D3D3D3",
"= 	c #D4D4D4",
"- 	c #D5D5D5",
"; 	c #CCCCCC",
"> 	c #D8D8D8",
", 	c #D9D9D9",
"' 	c #DBDBDB",
") 	c #DCDCDC",
"! 	c #DADADA",
"~ 	c #D6D6D6",
"{ 	c #E0E0E0",
"] 	c #E1E1E1",
"^ 	c #E2E2E2",
"/ 	c #E3E3E3",
"( 	c #DDDDDD",
"_ 	c #E4E4E4",
": 	c #E7E7E7",
"< 	c #E9E9E9",
"[ 	c #EAEAEA",
"} 	c #EBEBEB",
"| 	c #E5E5E5",
"1 	c #DEDEDE",
"2 	c #EEEEEE",
"3 	c #EFEFEF",
"4 	c #F0F0F0",
"5 	c #ECECEC",
"6 	c #F3F3F3",
"7 	c #F5F5F5",
"8 	c #F4F4F4",
"9 	c #EDEDED",
"0 	c #F8F8F8",
"a 	c #FBFBFB",
"b 	c #F7F7F7",
"c 	c #F6F6F6",
"d 	c #FAFAFA",
"e 	c #FCFCFC",
"f 	c #E6E6E6",
"g 	c #C9C9C9",
"h 	c #F2F2F2",
"i 	c #FDFDFD",
"j 	c #C8C8C8",
"k 	c #C7C7C7",
"l 	c #FEFEFE",
"m 	c #C5C5C5",
"n 	c #C3C3C3",
"o 	c #C4C4C4",
"p 	c #000000",
"q 	c #C0C0C0",
"r 	c #BFBFBF",
"s 	c #C2C2C2",
"t 	c #BBBBBB",
"u 	c #B9B9B9",
"v 	c #BCBCBC",
"w 	c #BEBEBE",
"x 	c #B7B7B7",
"y 	c #B8B8B8",
"z 	c #C1C1C1",
"A 	c #B5B5B5",
"B 	c #B2B2B2",
"C 	c #B3B3B3",
"D 	c #B1B1B1",
"E 	c #AEAEAE",
"F 	c #ADADAD",
"G 	c #B6B6B6",
"H 	c #AFAFAF",
"I 	c #A9A9A9",
"J 	c #A7A7A7",
"K 	c #A8A8A8",
"L 	c #CECECE",
"M 	c #A5A5A5",
"N 	c #A6A6A6",
"O 	c #ABABAB",
"P 	c #B0B0B0",
"Q 	c #A0A0A0",
"R 	c #A1A1A1",
"S 	c #AAAAAA",
"T 	c #A4A4A4",
"U 	c #9D9D9D",
"V 	c #9C9C9C",
"W 	c #9A9A9A",
"X 	c #6D6D6D",
"Y 	c #989898",
"Z 	c #969696",
"` 	c #9F9F9F",
" .	c #BABABA",
"..	c #939393",
"+.	c #959595",
"@.	c #8F8F8F",
"#.	c #999999",
"$.	c #A2A2A2",
"%.	c #979797",
"&.	c #909090",
"*.	c #8E8E8E",
"=.	c #949494",
"-.	c #8D8D8D",
";.	c #8C8C8C",
">.	c #C6C6C6",
",.	c #8A8A8A",
"'.	c #888888",
").	c #8B8B8B",
"!.	c #858585",
"~.	c #878787",
"{.	c #828282",
"].	c #848484",
"^.	c #838383",
"/.	c #7F7F7F",
"(.	c #868686",
"_.	c #919191",
":.	c #808080",
"<.	c #7E7E7E",
"[.	c #7D7D7D",
"}.	c #7C7C7C",
"|.	c #9E9E9E",
"                                      . . + . . . + + . +                                       ",
"                                @ # $ % % % % & % % $ $ # # @ @                                 ",
"                          @ # $ % & * = - - - - = = * * & % $ # @ ; ;                           ",
"                        # % % * = > , ' ' ' ) ) ' ! > > - = % $ @ @ @ ;                         ",
"                    @ $ & = ~ ! ) { ] ] ^ / / / ] ] ( ' , > = * & % # @ ; .                     ",
"                  # % * ~ ! ( ] _ : < < [ } } < : | ^ { 1 ) , ~ - & $ @ @ ; .                   ",
"                # & = > ) ] | : } 2 3 3 4 4 4 2 5 < | / ] 1 ' ~ - & $ @ @ ; . .                 ",
"              # % - ! 1 / < 5 3 6 7 7 7 7 7 8 4 9 } : | ^ 1 ' ~ = * $ @ @ ; . . .               ",
"            # % - ' ] | } 3 8 7 0 a 0 b b c 8 4 2 } < | / 1 ' ~ = * # ; @ ; + . . +             ",
"          # & - ' { | 5 4 7 d a a e d 0 b 7 8 4 3 5 f | ^ ( ! ~ * % ; + . . g g g g +           ",
"        @ % - ! ] f 5 h b a i i e a d c 7 6 4 9 } : _ _ ] ' > - % @ + j j k k j j j g +         ",
"        $ = , 1 _ } h 0 e l l i a 0 c 6 4 5 < : | _ ^ ^ ( ! > * # + j m n n n o m k j g         ",
"      # & ~ ) / [ 4 c e l l i a b 8 4 9 < p p p ] { 1 ( ! > - $ . g k n q r q s s o k j g       ",
"    @ $ = ! ] : 4 c e l l i a b 6 9 < _ ] p p p ) ' , > - - * # . j o q t u v w r q n m j g     ",
"    # & ~ ( | 9 8 d e l i a c 4 5 f ] ) ! p p p ! > - - = % $ @ + k s w u x x y u v z o k j     ",
"    $ = ! ] < 4 c e e e d c 4 [ _ 1 ! , > p p p = = & & % # # ; g m s v y A B C C y w s o k     ",
"  @ % ~ ' _ 5 6 0 a e d b 4 [ _ ( > = = * p p p $ $ # $ # @ ; . g m z v x D E F E C u w s m j   ",
"  # & ~ ( f 2 8 0 a d b 8 5 _ 1 > = & p p p p p p p $ # @ ; . + j m z v G H I J K H A u q n k   ",
"  $ * , ] < 4 7 d d b 8 2 f { , - $ * * p p p p p # L . + . . + j m s t A E I M N O P G w z m   ",
". $ = ' ^ [ 4 c 0 b 7 4 [ ^ ! = & % & * & p p p & % # ; ; . + + g m s t A F N Q R N S D u q n k ",
". % - ) / } 4 7 7 7 h 9 | 1 ~ * % % & = = = p % $ # @ ; ; ; + + j m z v A O T U U Q N E x w s k ",
". % - ' / [ 3 6 8 8 4 < ^ ) = p p p p p p p p p p p p p p p p + g k s v A S R V W V R S A t s m ",
". % - ) / < 9 4 h h 3 : ] ' = p X X X X X X X X X X X X X X p + j k s t C I Q Y Z Y ` K D u q o ",
". % - ) ^ < 9 3 3 3 5 | 1 , = p X X X X X X X X X X X X X X p + j m z  .B J U Z ..+.V N P x r o ",
". % - ' ] f } 9 9 5 < ] ) , - p X X X X X X X X X X X X X X p + j o z  .P N W ..@...#.$.F G w o ",
"+ % - ! { _ < } [ < f { ) , - p X X X X X X X X X X X X X X p k k n r y E T %.&.*.&.%.R F G r o ",
"+ $ = , 1 / f < : f _ { ' > - p X X X X X X X X X X X X X X p k k s w A S Q =.-.;.*.+.Q F G r n ",
"+ $ & ~ ) ] / | _ / ^ 1 ' > ~ p X X X X X X X X X X X X X X p >.o z  .D J W &.,.'.).=.R F G r n ",
"+ # % - , ( ] ] ^ ] ] ) ! > - p X X X X X X X X X X X X X X p n n w x F R Z -.!.~.;.=.Q F x r o ",
"  @ $ * > ' ( ( ( ( ) ! , ~ * p p p p p p p p p p p p p p p p z q  .D J V &.'.{.].-.Z T P u q   ",
"  @ $ * - , ! ' ! ! > , ~ - & * & % # @ p p p p p p + g j k o q v A O Q +.).^./.].*.Y M B t z   ",
"  ; # % = - > > , > ~ = * & % % % # p p p p p p p p p p k o s v G E T Y *.(.{.{.~._.U I A v s   ",
"    @ $ % = - - = = & $ # @ @ ; ; . . + g g j j j j k m n z t G E M W &.~.:.<.^.,.+.$.E y r     ",
"    ; @ $ % & * & # ; . . . g g g j j j k m k m m o n z r  .A H J U _.'.{.<.<.!.-.#.J D  .z     ",
"    . @ # $ $ % % # ; g j m n n n n n s s s s s z r w t x D F M U ..,.^.[.<.^.,.=.Q F G w n     ",
"      ; @ # # # ; . j k n q w w w w v t v t t  .u y G D F J R #.@.~.:.<.}./.~.@.W J B u q       ",
"        ; ; @ @ ; + k n q t u y y G A A A A B B P E O J Q V +.*.(.:.}.[.<.!.*.Y $.E x w         ",
"        . ; ; ; . . j n w  .x A D H F F O S I I J T ` W +.&.).(.:.[.[./.].;.%.R S C t z         ",
"          . . + + g k n r  .G D E O K N T R Q |.V %...@.;.'.].:.[.<.{.!.-.Z ` I C  .q           ",
"            . + . + j o z w y C F K M Q |.V #.+._.*.;.,.~.^.:.:.{.!.,.@.Y $.S B  .r             ",
"              . . + j o s q t G P S M Q V Y +._.*.).'.'.(.!.!.~.,.@.=.V M O B u r               ",
"                + g g k o s w y C H I M Q U Y Z ..@.*.-.;.-.@._.+.#.` J E C  .r                 ",
"                  + g j k o z v y C H S N $.` V #.%.Z +.+.%.#.V Q N S D x t q                   ",
"                    + g j m n z w u G D F I N T R Q ` ` R T M I F D G  .w z                     ",
"                        g j k o s r v u G A D H F F O F H H D C y  .w z                         ",
"                          g j k o n z q w t  .u y x x x y u  .v r z n                           ",
"                                j k m o s q q r r v w r r q z n                                 ",
"                                      k k o o o n n n o o                                       "};
