/* XPM */
static char * restart_xpm[] = {
"48 48 127 2",
"  	c None",
". 	c #CBCBCB",
"+ 	c #CACACA",
"@ 	c #CCCCCC",
"# 	c #CDCDCD",
"$ 	c #CFCFCF",
"% 	c #D0D0D0",
"& 	c #D1D1D1",
"* 	c #D2D2D2",
"= 	c #D3D3D3",
"- 	c #D4D4D4",
"; 	c #D5D5D5",
"> 	c #D8D8D8",
", 	c #D9D9D9",
"' 	c #DBDBDB",
") 	c #DCDCDC",
"! 	c #DADADA",
"~ 	c #D6D6D6",
"{ 	c #E0E0E0",
"] 	c #E1E1E1",
"^ 	c #E2E2E2",
"/ 	c #E3E3E3",
"( 	c #DDDDDD",
"_ 	c #E4E4E4",
": 	c #E7E7E7",
"< 	c #E9E9E9",
"[ 	c #EAEAEA",
"} 	c #EBEBEB",
"| 	c #E5E5E5",
"1 	c #DEDEDE",
"2 	c #EEEEEE",
"3 	c #EFEFEF",
"4 	c #F0F0F0",
"5 	c #ECECEC",
"6 	c #F3F3F3",
"7 	c #F5F5F5",
"8 	c #F4F4F4",
"9 	c #EDEDED",
"0 	c #F8F8F8",
"a 	c #FBFBFB",
"b 	c #F7F7F7",
"c 	c #F6F6F6",
"d 	c #FAFAFA",
"e 	c #FCFCFC",
"f 	c #E6E6E6",
"g 	c #C9C9C9",
"h 	c #F2F2F2",
"i 	c #FDFDFD",
"j 	c #C8C8C8",
"k 	c #C7C7C7",
"l 	c #FEFEFE",
"m 	c #C5C5C5",
"n 	c #C3C3C3",
"o 	c #C4C4C4",
"p 	c #C0C0C0",
"q 	c #BFBFBF",
"r 	c #C2C2C2",
"s 	c #BBBBBB",
"t 	c #B9B9B9",
"u 	c #BCBCBC",
"v 	c #BEBEBE",
"w 	c #B7B7B7",
"x 	c #B8B8B8",
"y 	c #C1C1C1",
"z 	c #B5B5B5",
"A 	c #B2B2B2",
"B 	c #B3B3B3",
"C 	c #000000",
"D 	c #B1B1B1",
"E 	c #AEAEAE",
"F 	c #ADADAD",
"G 	c #B6B6B6",
"H 	c #AFAFAF",
"I 	c #A9A9A9",
"J 	c #A7A7A7",
"K 	c #A8A8A8",
"L 	c #566B43",
"M 	c #4C603C",
"N 	c #A5A5A5",
"O 	c #A6A6A6",
"P 	c #ABABAB",
"Q 	c #B0B0B0",
"R 	c #526741",
"S 	c #5A7046",
"T 	c #445636",
"U 	c #A0A0A0",
"V 	c #A1A1A1",
"W 	c #AAAAAA",
"X 	c #A4A4A4",
"Y 	c #9D9D9D",
"Z 	c #37452B",
"` 	c #9C9C9C",
" .	c #9A9A9A",
"..	c #989898",
"+.	c #969696",
"@.	c #9F9F9F",
"#.	c #BABABA",
"$.	c #939393",
"%.	c #959595",
"&.	c #8F8F8F",
"*.	c #999999",
"=.	c #A2A2A2",
"-.	c #425334",
";.	c #979797",
">.	c #909090",
",.	c #8E8E8E",
"'.	c #949494",
").	c #8D8D8D",
"!.	c #8C8C8C",
"~.	c #475937",
"{.	c #8A8A8A",
"].	c #888888",
"^.	c #8B8B8B",
"/.	c #5C7449",
"(.	c #858585",
"_.	c #878787",
":.	c #828282",
"<.	c #848484",
"[.	c #838383",
"}.	c #7F7F7F",
"|.	c #868686",
"1.	c #919191",
"2.	c #808080",
"3.	c #7E7E7E",
"4.	c #7D7D7D",
"5.	c #7C7C7C",
"6.	c #9E9E9E",
"                                      . . + . . . + + . +                                       ",
"                                # $ % & & & & * & & % % $ $ # #                                 ",
"                          # $ % & * = - ; ; ; ; - - = = * & % $ # @ @                           ",
"                        $ & & = - > , ' ' ' ) ) ' ! > > ; - & % # # # @                         ",
"                    # % * - ~ ! ) { ] ] ^ / / / ] ] ( ' , > - = * & $ # @ .                     ",
"                  $ & = ~ ! ( ] _ : < < [ } } < : | ^ { 1 ) , ~ ; * % # # @ .                   ",
"                $ * - > ) ] | : } 2 3 3 4 4 4 2 5 < | / ] 1 ' ~ ; * % # # @ . .                 ",
"              $ & ; ! 1 / < 5 3 6 7 7 7 7 7 8 4 9 } : | ^ 1 ' ~ - = % # # @ . . .               ",
"            $ & ; ' ] | } 3 8 7 0 a 0 b b c 8 4 2 } < | / 1 ' ~ - = $ @ # @ + . . +             ",
"          $ * ; ' { | 5 4 7 d a a e d 0 b 7 8 4 3 5 f | ^ ( ! ~ = & @ + . . g g g g +           ",
"        # & ; ! ] f 5 h b a i i e a d c 7 6 4 9 } : _ _ ] ' > ; & # + j j k k j j j g +         ",
"        % - , 1 _ } h 0 e l l i a 0 c 6 4 2 } < | _ ^ ^ ( ! > = $ + j m n n n o m k j g         ",
"      $ * ~ ) / [ 4 c e l l i a b 8 4 9 < f / ^ ] { 1 ( ! > ; % . g k n p q p r r o k j g       ",
"    # % - ! ] : 4 c e l l i a b 6 9 < _ ] { ) ' ) ' , > ; ; = $ . j o p s t u v q p n m j g     ",
"    $ * ~ ( | 9 8 d e l i a c 4 5 f ] ) ! ! ! ! ! > ; ; - & % # + k r v t w w x t u y o k j     ",
"    % - ! ] < 4 c e e e d c 4 [ _ 1 ! , > > ~ ~ - - * * & $ $ @ g m r u x z A B B x v r o k     ",
"  # & ~ ' _ 5 6 0 a e d b 4 [ _ ( > ~ ~ ; - - C * * & % $ # @ . g m y u w D E F E B t v r m j   ",
"  $ * ~ ( f 2 8 0 a d b 8 5 _ 1 > - - - - = C C * & % $ # @ . + j m y u G H I J K H z t p n k   ",
"  % = , ] < 4 7 d d b 8 2 f { , ; * = = * C L M C C C # @ . . + j m r s z E I N O P Q G v y m   ",
". % - ' ^ [ 4 c 0 b 7 4 [ ^ ! - * & * = C R S R R M T C C . + + g m r s z F O U V O W D t p n k ",
". & ; ) / } 4 7 7 7 h 9 | 1 ~ = = = * - - C L R C C C T T C + + j m y u z P X Y Y U O E w v r k ",
". & ; ' / [ 3 6 8 8 4 < ^ ) ~ = = = = C - = C C % $ # C Z C + + g k r u z W V `  .` V W z s r m ",
". & ; ) / < 9 4 h h 3 : ] ' ~ - = * C - = = * C $ $ @ . C Z C + j k r s B I U ..+...@.K D t p o ",
". & ; ) ^ < 9 3 3 3 5 | 1 , - = = C C - - * & & % # @ . . C C + j m y #.A J Y +.$.%.` O Q w q o ",
". & ; ' ] f } 9 9 5 < ] ) , ; - = C C - = & % & % @ . . . C C + j o y #.Q O  .$.&.$.*.=.F G v o ",
"+ & ; ! { _ < } [ < f { ) , ; - - C -.C * & % % C + + . . C . g k n q x E X ;.>.,.>.;.V F G q o ",
"+ % - , 1 / f < : f _ { ' > ; = - = C -.C & $ # C C + . C . + g k r v z W U '.).!.,.%.U F G q n ",
"+ % * ~ ) ] / | _ / ^ 1 ' > ~ ; - = C T M C C C R ~.C . . . + j o y #.D J  .>.{.].^.'.V F G q n ",
"+ $ & ; , ( ] ] ^ ] ] ) ! > ; - * * & C C R R /.R M R C . + j m n v w F V +.).(._.!.'.U F w q o ",
"  # % = > ' ( ( ( ( ) ! , ~ = * & & $ $ # C C C M T C + + j m n p #.D J ` >.].:.<.).+.X Q t p   ",
"  # % = ; , ! ' ! ! > , ~ ; * = * & $ # # @ . + C C + g j k o r u z P U %.^.[.}.<.,...N A s y   ",
"  @ $ & - ; > > , > ~ - = * & & & $ # # @ . + g C g j j k o r u G E X ..,.|.:.:._.1.Y I z u r   ",
"    # % & - ; ; - - * % $ # # @ @ . . + g g j j j j k m n y s G E N  .>._.2.3.[.{.%.=.E x q     ",
"    @ # % & * = * $ @ . . . g g g j j j k m k m m o n y q #.z H J Y 1.].:.3.3.(.).*.J D #.y     ",
"    . # $ % % & & $ @ g j m n n n n n r r r r r y q v s w D F N Y $.{.[.4.3.[.{.'.U F G v n     ",
"      @ # $ $ $ @ . j k n p v v v v u s u s s #.t x G D F J V *.&._.2.3.5.}._.&. .J A t p       ",
"        @ @ # # @ + k n p s t x x G z z z z A A Q E P J U ` %.,.|.2.5.4.3.(.,...=.E w v         ",
"        . @ @ @ . . j n v #.w z D H F F P W I I J X @. .%.>.^.|.2.4.4.}.<.!.;.V W B s y         ",
"          . . + + g k n q #.G D E P K O X V U 6.` ;.$.&.!.].<.2.4.3.:.(.).+.@.I B #.p           ",
"            . + . + j o y v x B F K N U 6.` *.%.1.,.!.{._.[.2.2.:.(.{.&...=.W A #.q             ",
"              . . + j o r p s G Q W N U ` ..%.1.,.^.].].|.(.(._.{.&.'.` N P A t q               ",
"                + g g k o r v x B H I N U Y ..+.$.&.,.).!.).&.1.%.*.@.J E B #.q                 ",
"                  + g j k o y u x B H W O =.@.` *.;.+.%.%.;.*.` U O W D w s p                   ",
"                    + g j m n y v t G D F I O X V U @.@.V X N I F D G #.v y                     ",
"                        g j k o r q u t G z D H F F P F H H D B x #.v y                         ",
"                          g j k o n y p v s #.t x w w w x t #.u q y n                           ",
"                                j k m o r p p q q u v q q p y n                                 ",
"                                      k k o o o n n n o o                                       "};
