/* XPM */
static char * stop_xpm[] = {
"48 48 131 2",
"  	c None",
". 	c #020204",
"+ 	c #1A0E0C",
"@ 	c #9A9A9C",
"# 	c #CACACC",
"$ 	c #EEEEEC",
"% 	c #623E3C",
"& 	c #A6A6A4",
"* 	c #E2E2E4",
"= 	c #AEAEAC",
"- 	c #7E5E64",
"; 	c #DADADC",
"> 	c #B6B6B4",
", 	c #7E7E7C",
"' 	c #B68A8C",
") 	c #D2D2D4",
"! 	c #BABABC",
"~ 	c #868684",
"{ 	c #DABABC",
"] 	c #BEBEBC",
"^ 	c #C69A9C",
"/ 	c #260A0C",
"( 	c #FAFAFC",
"_ 	c #B27E7C",
": 	c #929294",
"< 	c #D6B2B4",
"[ 	c #CAA6A4",
"} 	c #C2C2C4",
"| 	c #CEAEAC",
"1 	c #1A0604",
"2 	c #E2CACC",
"3 	c #B28684",
"4 	c #CECECC",
"5 	c #EADEDC",
"6 	c #EAEAEC",
"7 	c #F6F6F4",
"8 	c #9E6664",
"9 	c #AE7E7C",
"0 	c #DED2D4",
"a 	c #CAAEB4",
"b 	c #E6DADC",
"c 	c #A2A2A4",
"d 	c #C6C6C4",
"e 	c #8E8E8C",
"f 	c #D6D6D4",
"g 	c #EEE2E4",
"h 	c #BAA6A4",
"i 	c #060204",
"j 	c #D2B6B4",
"k 	c #BA9A9C",
"l 	c #DEDEDC",
"m 	c #76464C",
"n 	c #E6E6E4",
"o 	c #CEBABC",
"p 	c #B2B2B4",
"q 	c #120204",
"r 	c #AAAAAC",
"s 	c #F2F2F4",
"t 	c #9E6A6C",
"u 	c #D2C2C4",
"v 	c #C2969C",
"w 	c #FEFEFC",
"x 	c #CAB6B4",
"y 	c #9E9E9C",
"z 	c #2E0E0C",
"A 	c #969694",
"B 	c #8A8A8C",
"C 	c #967274",
"D 	c #828284",
"E 	c #A26E6C",
"F 	c #8E5A5C",
"G 	c #664244",
"H 	c #DABEBC",
"I 	c #0E0604",
"J 	c #120A0C",
"K 	c #9E7274",
"L 	c #724A4C",
"M 	c #B2A6A4",
"N 	c #220604",
"O 	c #F6EAEC",
"P 	c #BEB2B4",
"Q 	c #A29694",
"R 	c #C6A2A4",
"S 	c #D6C2C4",
"T 	c #2A0A0C",
"U 	c #E6DEDC",
"V 	c #824E4C",
"W 	c #A67674",
"X 	c #E6D2D4",
"Y 	c #DEC2C4",
"Z 	c #723E44",
"` 	c #BA8E8C",
" .	c #A29A9C",
"..	c #F6EEEC",
"+.	c #0E0204",
"@.	c #AE8E8C",
"#.	c #EEE6E4",
"$.	c #120604",
"%.	c #C69E9C",
"&.	c #CAAAAC",
"*.	c #220A0C",
"=.	c #160604",
"-.	c #BE8A8C",
";.	c #1E0604",
">.	c #C2AAAC",
",.	c #DECECC",
"'.	c #DEC6C4",
").	c #2E0A0C",
"!.	c #0A0204",
"~.	c #B28284",
"{.	c #CEB2B4",
"].	c #A27674",
"^.	c #E2D2D4",
"/.	c #1E060C",
"(.	c #BE8E8C",
"_.	c #CAA6AC",
":.	c #CAB2B4",
"<.	c #925E5C",
"[.	c #E6D6D4",
"}.	c #EEDEDC",
"|.	c #BA8A8C",
"1.	c #320E0C",
"2.	c #F2E6E4",
"3.	c #E2C6C4",
"4.	c #22060C",
"5.	c #824E54",
"6.	c #C69EA4",
"7.	c #DAB2B4",
"8.	c #A27274",
"9.	c #AA7674",
"0.	c #CEAAAC",
"                                      # # # # # # # # # #                                       ",
"                                4 ) ) ) ) ) ) ) ) ) ) ) 4 4 4 4                                 ",
"                          4 4 ) 4 ) ) f f f f f ) ) ) f ) ) 4 4 4 # 4                           ",
"                        4 4 ) ) f f ; ; ; ; l ; l ; ; f f ) ) 4 4 4 4 #                         ",
"                    # ) ) f f ; l * * * * * n * * l l ; ; ; f ) ) 4 ) 4 # #                     ",
"                  4 ) ) f ; l * * n n n 6 6 6 6 n n * * l ; ; f f ) 4 4 4 4 #                   ",
"                4 ) f ; ; l * 6 6 $ s $ s $ $ $ $ 6 n * * l ; f f ) 4 4 4 4 4 4                 ",
"              ) ) f ; l * 6 $ $ s 7 s 7 s 7 7 s 6 6 n n * l l f f ) ) 4 # # # # #               ",
"            4 ) f ; * n 6 $ s 7 ( w ( ( 7 7 s s $ 6 6 n * l ; f f ) 4 4 4 # # # # #             ",
"          4 ) f ; l * $ s 7 ( ( ( ( ( 7 ( s 7 $ $ $ n * * ; ; f ) ) # # # 4 # # # d #           ",
"        4 ) ) ; * n 6 s 7 w w w w ( ( 7 7 s s $ 6 n n * * ; f f ) 4 # # d d d d # d # #         ",
"        4 ) ; l n $ s 7 w w w ( ( 7 7 s s $ 6 6 n * * * l ; ; ) 4 # d d } } d d d d d d         ",
"      ) ) f ; * 6 s 7 ( w w w ( ( 7 $ 6 6 n * * * l l l ; f f 4 # # d d } ] ] } } d # # #       ",
"    # 4 f ; * n $ 7 w w w w ( 7 s 6 6 n l * ; ; l l ; f f f ) ) 4 # } ] ! ! ] ] } ] } d d #     ",
"    4 ) f l n $ s ( w w w w 7 $ $ n * l ; ; ; ; ; ; f f ) ) 4 # # # } ] > > > > ! ! ] d d d     ",
"    ) ) ; * 6 $ 7 ( ( ( ( 7 s 6 * l ; ; f ; f f ) ) ) ) ) 4 4 4 d } } ! ! > p p p ! ] } d d     ",
"  4 ) f ; * $ s ( ( w ( 7 $ 6 n l f f f . i +.q =.q q ) 4 4 # 4 # d } ! > p = = = > ! ] } d #   ",
"  4 ) f l n $ 7 7 w ( 7 s $ n l f f . . M o 2 ,.x k - ;.T 4 4 # # d } ] > = r & & = p ! } } d   ",
"  4 ) f * 6 $ 7 ( ( 7 7 $ n l ; ) . Q ,.2.g b b b X 3.9 % ).# # d d } ! > = r & & = = > ] } }   ",
"# ) f l * 6 s 7 7 7 7 $ 6 * ; f ) i 0 $ 2.5 U U b ^.Y 7.E z # # # } } ! p = & c c & r p ! ] d d ",
"# ) ) ; * 6 s 7 7 7 s $ n l f f . Q O g }.$.b b l I x { |.% *.# # d } ] > r c @ @ c & = > ] } d ",
"# 4 f l * 6 $ s s s s n * l f ) !.P 2.5 + I J b +.+.$.>.[ W ).# # d } ! p r c y @ @ y r > ! } d ",
"4 ) ) l * 6 $ s s s s n * ; f ) +.u g U b J i I I +.h '.&.' T # d d } ] p r y @ A @ y r p ! } d ",
"# ) f ; * n $ $ $ $ 6 n l ; ) ) =.o g b l b I !.!.^.,.{.[ 3 T # # d } ! p & y A : A y & = > ] } ",
"# ) f l * n 6 $ $ $ n l ; ; f ) 1 a g U U !.$.$.I q {.0.v K T # # d ] ! = & @ A e : A c = > ] d ",
"# ) f ; * * 6 6 6 n n * l ; f f =.@.H ^.I $.+.,.$.J / ^ _ <./ # d } } ! = & A e e : @ c r > ] } ",
"# 4 ) f l * n 6 6 n * l ; f f ) q C R { '.$.'.'.< ;.` (.t m N # d } ] > r c A e B e A c = > ] } ",
"# ) ) f l * n * * n * l ; ; f f f 1 ` %.< H a { [ ^ -.t V T # d d ] ! p & @ e B B B : c r > } d ",
"# 4 ) ) ; ; * * * * * l ; f ) ) ) /.K v 6.^ ^ v (._ 9.F L 1 # } d ] > = y A B D ~ e : c = > ] d ",
"  4 ) f f l l l ; l ; ; ; f f ) ) ) *.N E |.|._ 8 V Z / ;.# } d ] ! p & y : B D ~ B A c p ! ]   ",
"  # 4 ) ) ; ; l ; ; f f f ) ) ) ) 4 ) 4 ;.N T ).).)./ d d # } } ! > r y : B ~ , ~ e @ c p ] }   ",
"  4 4 ) f ) f f ; ; f f ) ) ) ) 4 ) # 4 4 4 # # # # d # d } } ] > = & @ e ~ D D ~ : y r p ! }   ",
"    4 4 ) f f ) ) f ) ) ) 4 4 4 # 4 # # d # d d # # d d } } ! > = c @ : ~ , , D B : c = ! ]     ",
"    # 4 ) 4 ) f ) 4 # # # # d # # d # d # d # d } } } } } ! > p & y : ~ D , , ~ e @ & p ! }     ",
"    # # ) 4 4 ) ) ) 4 # d d } } } } } } } } } } } } ] ! > = r & y : B ~ , , D B A c = > ] }     ",
"      4 # ) 4 4 # # d d d } ] ] ] ] ] ! ! ! ! ! ! > > p = r c A e ~ D , , , B e @ & p > }       ",
"        # 4 4 4 # # d } ] ! ! ! > > > > > > p p p = r & y y A e ~ , , , , D e A c = ! ]         ",
"        # # 4 4 4 # # } ] ! > > p = r = r r r & & c y @ A e B ~ , , , , D e A c r p ! ]         ",
"          # # # # d d } ] ! > p = = & & & c c y y A : e e B ~ D , , , ~ e A y r p ! }           ",
"            # # 4 # # d } ] > p = & & y y @ @ A : e e B ~ D , , D D B e A c r p ! ]             ",
"              # 4 # d d } } ! > p r & y y A : e e B B ~ ~ ~ ~ ~ B : A y & r p ! ]               ",
"                # # # d d } ] > p = r & y y @ A A e e e e e e : A A y & = > ! ]                 ",
"                  # # d d d } ! ! p = r & c c @ @ A A : : @ A y c & r p > ! }                   ",
"                    # # d d } } ] ! > p = r & & c y y c c c & & = p > ! ] }                     ",
"                        d # d } } ] ] > > p = = = = r = = = p p > ! ] }                         ",
"                          # # d } d ] } ] ] ! ! ! > > > ! ! ! ! } } }                           ",
"                                d # d } } } ] ] } ] ] ] ] } } }                                 ",
"                                      d d } d } } } } d d                                       "};
