/* XPM */
static char * append_xpm[] = {
"16 14 8 1",
" 	c None",
".	c #000000",
"+	c #37452B",
"@	c #445636",
"#	c #526741",
"$	c #566B43",
"%	c #4C603C",
"&	c #5A7046",
"                ",
"     .          ",
"    .           ",
"   ..           ",
"   ..           ",
"   .+.    .     ",
"    .+.   ..    ",
"    .@@...#$.   ",
"     ..@%##&#.  ",
"       ...%$.   ",
"          ..    ",
"          .     ",
"                ",
"                "};
