/* XPM */
static char * break_xpm[] = {
"32 32 14 1",
" 	c None",
".	c #040202",
"+	c #C80505",
"@	c #D60202",
"#	c #B00606",
"$	c #970808",
"%	c #F10202",
"&	c #870A0A",
"*	c #700B0B",
"=	c #500E0E",
"-	c #351111",
";	c #000000",
">	c #FFFFFF",
",	c #A0A0A0",
"         .......                ",
"        .+@###$$..              ",
"      ..@@@+###$$$..            ",
"     .@%@@@@@+#$$$&*.           ",
"    .%%%%%@@+###$$***.          ",
"   .%%%%%%%@@@##$$$***.         ",
"  .%%%%%%%%@@@###$&**=.         ",
"  .%%%%%%%%@@@##$$&&**=.        ",
" .@@%%%%%%%%@+###$&**==.        ",
" .@%%%%%%%%@+@##$$$***==.       ",
".@+@@%%%%%@@@###$$***===.       ",
".#+@@@%@%@@+@##$$$&*=*=-.       ",
".##@@@@@@@++#;;;;****==-. ;;;;  ",
".####++@#@###;>>>;**==-=.;>>>;  ",
".$######+####;>>>>;*==--;>>>>;  ",
" .$########$$;>>>>>;==-;>>>>>;  ",
" .$$$$#$#$$$$$;>>>>>;-;>>>>>;   ",
"  .&$$$$$$$$***;>>>>>;>>>>>;    ",
"  .&*&*$*$**$***;>>>>>,>>>;     ",
"   .*$***$*****==;>>>>>,>;      ",
"   *.******=*=====;>>>>>;       ",
"    =.**=*======-;>,>>>>>;      ",
"      -.======--;>>>,>>>>>;     ",
"        ..==---;>>>>>;>>>>>;    ",
"          ....;>>>>>; ;>>>>>;   ",
"             ;>>>>>;   ;>>>>>;  ",
"             ;>>>>;     ;>>>>;  ",
"             ;>>>;       ;>>>;  ",
"             ;;;;         ;;;;  ",
"                                ",
"                                ",
"                                "};
