/* XPM */
static char * configure_xpm[] = {
"32 32 13 1",
" 	c None",
".	c #020204",
"+	c #FEFEFC",
"@	c #6A6A6C",
"#	c #0A0A87",
"$	c #0505C8",
"%	c #0E0E52",
"&	c #0B0B70",
"*	c #10103A",
"=	c #0606B0",
"-	c #0202F1",
";	c #080897",
">	c #0202D6",
"         .......                ",
"        .$>===;;..              ",
"      ..>>>$===;;;..            ",
"     .>->>>>>$=;;;#&.           ",
"    .----->>$===;;&&&.          ",
"   .------->>>==;;;&&&.         ",
"  .-------->>>===;#&&%.         ",
"  .-------->>>==;;;&&&%.        ",
" .>>-------->$===;#&&%%.        ",
" .>-------->>$==;;;&&&%*.       ",
".>$>>----->>>===;;&&&%%..       ",
".=$>>>->->>$>==;;;#&%&.+.       ",
".==>>>>>>>$$@..;;&#&&.+++.      ",
".====$$$$$==.++.;&&&%%.+++.     ",
".;==========.+++.&&&%%*.+++.    ",
" .;========;;.++.&&%%%*.++++.   ",
" .;;;==;=;=;;#..+.%%**.++.++.   ",
"  .#;;;;;;;;##&&.+.%%.++. .+.   ",
"  .#&#;&;&&&&&&&%.+..++.   ..   ",
"   .&&;&&#&&&&%&%%.+.+.         ",
"   &.&&&&&&&%%%%**..+.          ",
"    *.&%&%%&%%%%*.++.+...       ",
"      *.%%%%%***.++. .+++.      ",
"        ..*****.++.  .+@++.     ",
"          .....++.   .++@++.    ",
"             .++.     .++@++.   ",
"            .++.       .++@+.   ",
"            .+.         .++@.   ",
"             .           ....   ",
"                                ",
"                                ",
"                                "};
