/* XPM */
static char * continue_small_xpm[] = {
"19 14 8 1",
" 	c None",
".	c #000000",
"+	c #4C603C",
"@	c #566B43",
"#	c #445636",
"$	c #526741",
"%	c #5A7046",
"&	c #37452B",
"                   ",
"           .       ",
"           ..      ",
"        ...+@.     ",
"      ..#+$$%$.    ",
"     .##...$@.     ",
"     .&.   ..      ",
"    .&.    .       ",
"    ..             ",
"    ..             ",
"     .             ",
"      .            ",
"                   ",
"                   "};
