/* XPM */
static char * continue_xpm[] = {
"32 32 13 1",
" 	c None",
".	c #040402",
"+	c #C8C805",
"@	c #D6D602",
"#	c #B0B006",
"$	c #979708",
"%	c #F1F102",
"&	c #87870A",
"*	c #70700B",
"=	c #50500E",
"-	c #353511",
";	c #000000",
">	c #FFFFFF",
"         .......                ",
"        .+@###$$..              ",
"      ..@@@+###$$$..            ",
"     .@%@@@@@+#$$$&*.           ",
"    .%%%%%@@+###$$***.          ",
"   .%%%%%%%@@@##$$$***.         ",
"  .%%%%%%%%@@@###$&**=.         ",
"  .%%%%%%%%@@@##$$&&**=.        ",
" .@@%%%%%%%%@+###$&**==.        ",
" .@%%%%%%%%@+@##$$$***==.       ",
".@+@@%%%%%@@@###$$***===.       ",
".#+@@@%@%@@+@##$$$&*=*=-.       ",
".##@@@@@@@++###$$****==-.       ",
".####++@#@####$$&$**==-=.       ",
".$######+####$$$****=;--.       ",
" .$########$$$&$***==;;-.       ",
" .$$$$#$#$$$$$$***===;>;        ",
"  .&$$$$$$$$****=====;>>;       ",
"  .&*&*$*$;;;;;;;;;;;;>>>;      ",
"   .*$***$;>>>>>>>>>>>>>>>;     ",
"   *.*****;>>>>>>>>>>>>>>>>;    ",
"    =.**=*;>>>>>>>>>>>>>>>>>;   ",
"      -.==;>>>>>>>>>>>>>>>>;    ",
"        ..;>>>>>>>>>>>>>>>;     ",
"          ;;;;;;;;;;;;>>>;      ",
"                     ;>>;       ",
"                     ;>;        ",
"                     ;;         ",
"                     ;          ",
"                                ",
"                                ",
"                                "};
