/* XPM */
static char * gobg_xpm[] = {
"32 32 14 1",
" 	c None",
".	c #040404",
"+	c #C8C8C8",
"@	c #D6D6D6",
"#	c #B0B0B0",
"$	c #979797",
"%	c #F1F1F1",
"&	c #878787",
"*	c #707070",
"=	c #505050",
"-	c #353535",
";	c #000000",
">	c #FFFFFF",
",	c #545454",
"         .......                ",
"        .+@###$$..              ",
"      ..@@@+###$$$..            ",
"     .@%@@@@@+#$$$&*.           ",
"    .%%%%%@@+###$$***.          ",
"   .%%%%%%%@@@##$$$***.         ",
"  .%%%%%%%%@@@###$&**=.         ",
"  .%%%%%%%%@@@##$$&&**=.        ",
" .@@%%%%%%%%@+###$&**==.        ",
" .@%%%%%%%%@+@##$$$***==.       ",
".@+@@%%%%%@@@###$$***===.       ",
".#+@@@%@%@@+@##$$$&*=*=-.       ",
".##@@@@@@@++;;;;;;;;;;;;;;;;;;; ",
".####++@#@##>>>>>>>>>>>>>>>>>>; ",
".$######+###>,;;;;;;;;;;;;;;;>; ",
" .$########$>,;>;;;;;;;;;;;;;>; ",
" .$$$$#$#$$$>,;;>;;;;;;;;;;;;>; ",
"  .&$$$$$$$$>,;;;>;;;;;;;;;;;>; ",
"  .&*&*$*$**>,;;>;;;;;;;;;;;;>; ",
"   .*$***$**>,;>;;;####;;;;;;>; ",
"   *.******=>,;;;;;;;;;;;;;;;>; ",
"    =.**=*==>,;;;;;;.;;;;;;;;>; ",
"      -.====>,;;;;;;;;;;;;;;;>; ",
"        ..==>,;;;;;;;;;;;;;;;>; ",
"          ..>,;;;;;;;;;;;;;;;>; ",
"            >,,,,,,,,,,,,,,,,>; ",
"            >>>>>>>>>>>>>>>>>>; ",
"                                ",
"                                ",
"                                ",
"                                ",
"                                "};
