/* XPM */
static char * limit_xpm[] = {
"24 16 8 1",
" 	c None",
".	c #000000",
"+	c #D8BF68",
"@	c #D4B753",
"#	c #D0AE3F",
"$	c #CCA62A",
"%	c #C89E15",
"&	c #C49600",
"                        ",
"                        ",
"                        ",
" ..      .   .      ..  ",
".+.      .   .      .+. ",
".@.  .   .   .   .  .@. ",
".##..#.  .   .  .#..##. ",
".$$$$$$. .   . .$$$$$$. ",
" ..%%%%. .   . .%%%%..  ",
"   ..&.  .   .  .&..    ",
"     .   .   .   .      ",
"         .   .          ",
"         .   .          ",
"                        ",
"                        ",
"                        "};
