/* XPM */
static char * limits_xpm[] = {
"32 32 13 1",
" 	c None",
".	c #020204",
"+	c #FE0204",
"@	c #0A0A87",
"#	c #0505C8",
"$	c #0E0E48",
"%	c #0B0B71",
"&	c #0202F1",
"*	c #111135",
"=	c #0606B0",
"-	c #080897",
";	c #0202D6",
">	c #0E0E58",
"         .......                ",
"        .#;===--..              ",
"      ..;;;#===---..            ",
"     .&;;;;;;#=---@%.           ",
"    .&&&&&;;#===--%%%.          ",
"   .&&&&&&&;;;==---%%%.         ",
"  .&&&&&&&&;;;===-@%%>.         ",
"  .&&&&&&&&;;;==---%%%$.        ",
" .;&&&&&&&&&;#===-@%%>$.        ",
" .;;&&&&&&&;;#==---%%%>*.       ",
".#;;&&&&&&;;;===--%%%>$*.       ",
".=#;;;&;&;;#;==---@%>%>$.       ",
".==#;;;;;;#====--%%%%$$*.       ",
".====##;=#;===---@%%>>**.       ",
".-======#====---%%%>$$$*.       ",
" .-=======-=.--@%%%%>$**.  .    ",
" .----=-=---..%%%%$$$**.  ..    ",
"  .---------.+.%>%>$$**. .+.    ",
"  .@%@%-%@%%.++.%$$$**. .++.    ",
"   .%-%%%@%%.+++.$$**.*.+++.    ",
"   %.%%%%%%%.++++.***..++++.    ",
"    $.%%>>>>.+++++....+++++.    ",
"      *.$>$$.++++++..++++++.    ",
"        ..$$.+++++.  .+++++.    ",
"          ...++++.    .++++.    ",
"            .+++.      .+++.    ",
"            .++.        .++.    ",
"            .+.          .+.    ",
"            ..            ..    ",
"            .              .    ",
"                                ",
"                                "};
