/* XPM */
static char * maximize_small_xpm[] = {
"16 16 4 1",
" 	c None",
".	c #030305",
"+	c #84A176",
"@	c #E3E3E3",
"                ",
"       ..       ",
"       ..       ",
"      .@+.      ",
"      .@+.      ",
"     .@@++.     ",
"     .@@++.     ",
"    .@@@+++.    ",
"    .@@@+++.    ",
"   .@@@@++++.   ",
"   .@@@@++++.   ",
"  .@@@@@+++++.  ",
"  .@@@@@+++++.  ",
" .@+@@@@++++++. ",
" .............. ",
"                "};
