/* XPM */
static char * minimize_small_xpm[] = {
"16 16 4 1",
" 	c None",
".	c #060607",
"+	c #82A276",
"@	c #E3E3E3",
"                ",
" .............. ",
" .@@@@@@@+++++. ",
"  .@@@@@+++++.  ",
"  .@@@@@+++++.  ",
"   .@@@@++++.   ",
"   .@@@@++++.   ",
"    .@@@+++.    ",
"    .@@@+++.    ",
"     .@@++.     ",
"     .@@++.     ",
"      .++.      ",
"      .++.      ",
"       ..       ",
"       ..       ",
"                "};
