/* XPM */
static char * restart_xpm[] = {
"32 32 13 1",
" 	c None",
".	c #020402",
"+	c #05C805",
"@	c #02D602",
"#	c #06B006",
"$	c #089708",
"%	c #02F102",
"&	c #0A870A",
"*	c #0B700B",
"=	c #0E500E",
"-	c #000000",
";	c #FFFFFF",
">	c #113511",
"         .......                ",
"        .+@###$$..              ",
"      ..@@@+###$$$..            ",
"     .@%@@@@@+#$$$&*.           ",
"    .%%%%%@@+###$$***.          ",
"   .%%%%%%%@@@##$$$***.         ",
"  .%%%%%%%%@@@###$&**=.         ",
"  .%%%%%%%%@@@##$$&&**=.        ",
" .@@%%%%%%%%@+###$&**==.        ",
" .@%%%%%%%%@+@##$$$***==.       ",
".@+@@%%%%%@@@###$$--*===.       ",
".#+@@@%@%@@+@##$$$-;-*=>.       ",
".##@@@@@@@++###$---;;-=>.       ",
".####++@#@####$-;;;;;;-=.       ",
".$######+####$-;;;;;;;;-.-      ",
" .$########$$-;;;;;;;;--;;-     ",
" .$$$$#$#$$$$-;;---;;-=.;;;-    ",
"  .&$$$$$$$$*---=*-;->>.-;;;-   ",
"  .&*&*$*$**-;-*==-->>. -;;;-   ",
"   .*$***$*-;;;-==>--.---;;;--- ",
"   *.*****-;;;;;-=-;;--;;;;;;;- ",
"    =.**=-;;;;;;;--;;- -;;;;;-  ",
"      >.=---;;;--..--   -;;;-   ",
"        ..=-;;;..>  --   -;-    ",
"          ..;;;-   -;-  ---     ",
"            -;;;- -;;---;;-     ",
"             -;;--;;;;;;;;-     ",
"              ---;;;;;;;;-      ",
"                 -;;;;;;-       ",
"                  -;;---        ",
"                   -;-          ",
"                    --          "};
