/* XPM */
static char * save_xpm[] = {
"24 20 11 1",
" 	c None",
".	c #020204",
"+	c #6C9AA4",
"@	c #C0D2D6",
"#	c #F0F2F3",
"$	c #355157",
"%	c #CBBB82",
"&	c #516E74",
"*	c #283439",
"=	c #82AFB7",
"-	c #8B7B40",
"                   .    ",
"                  .%.   ",
"             ..  .%-.   ",
"           ..+*..%-.    ",
"         ..@@#+.%-.     ",
"       ..@@@##.%-.      ",
"     ..@@@###.%-.       ",
"   ..+@@####.%-.*.      ",
"  .=@@##=##.%-.#+.      ",
"  .+=##+##.%-.##+*.     ",
"   .@##-#%-..##+++.     ",
"   .&=##-..##++$$+*.    ",
"    .@##=##++*$$+$+.    ",
"    .&=##++*=##$=$+*.   ",
"     .=++$@###@%$+$*.   ",
"     .&=+@#$@##@++*..   ",
"      .=+$#*+@#%$..     ",
"      .&++@#%@-*.       ",
"       .$+$#+..         ",
"        .....           "};
