/* XPM */
static char * stop_xpm[] = {
"32 32 16 1",
" 	c None",
".	c #040302",
"+	c #C86605",
"@	c #D66A02",
"#	c #B05A06",
"$	c #974F08",
"%	c #F17902",
"&	c #87470A",
"*	c #703B0B",
"=	c #502B0E",
"-	c #351D11",
";	c #000000",
">	c #A80000",
",	c #FF0000",
"'	c #FFFFFF",
")	c #FF1C1C",
"         .......                ",
"        .+@###$$..              ",
"      ..@@@+###$$$..            ",
"     .@%@@@@@+#$$$&*.           ",
"    .%%%%%@@+###$$***.          ",
"   .%%%%%%%@@@##$$$***.         ",
"  .%%%%%%%%@@@###$&**=.         ",
"  .%%%%%%%%@@@##$$&&**=.        ",
" .@@%%%%%%%%@+###$&**==.        ",
" .@%%%%%%%%@+@##$$$***==.       ",
".@+@@%%%%%@@@###$$***===.       ",
".#+@@@%@%@@+@##$$$&*=*=-.       ",
".##@@@@@@@++###$$;;;;;;;;       ",
".####++@#@####$$;>,,,,,,>;      ",
".$######+####$$;>,,,,,,,,>;     ",
" .$########$$$;>,,,,,,,,,,>;    ",
" .$$$$#$#$$$$;>,,,,,,,,,,,,>;   ",
"  .&$$$$$$$$;>,,,,,''''',,,,>;  ",
"  .&*&*$*$**;,,,,,'''''',,,,,;  ",
"   .*$***$**;,,,,,''',,',,,,,;  ",
"   *.******=;,,,,,,'',,,,,,,,;  ",
"    =.**=*==;,,,,,,,''',,,,,,;  ",
"      -.====;,,,,,,,,''',,,,,;  ",
"        ..==;,,,,,',,''',,,,,;  ",
"          ...>,,,,'''''',,,,>;  ",
"             ;>,,,''''',,,,>;   ",
"              ;>,,,,,,),,,>;    ",
"               ;>,,,,,,,,>;     ",
"                ;>,,,,,,>;      ",
"                 ;;;;;;;;       ",
"                                ",
"                                "};
