/* XPM */
static char * stop_small_xpm[] = {
"19 16 6 1",
".	c none",
"+	c #C09C9D",
"@	c #E4D5D4",
"#	c #77494B",
"$	c #9D6D6D",
"x	c #000000",
"...................",
".....++@@++$.......",
"...+@@@@@@@@$#.....",
"...@@@@@@@@+@$.....",
"..+@@@x@@@x@++#....",
"..@@@xxx@xxx++$....",
"..@@@@xxxxx+@++....",
"..@@@@@xxx@@@++....",
"..+@@@xxxxx+++$....",
"..+@@xxx@xxx+$$....",
"..$+@@x@@@x++$#....",
"...+++@+++++$#.....",
"...$++++++$$$#.....",
".....$++$$##.......",
"...................",
"..................."};
