/* XPM */
static char * pavuk_32x32_xpm[] = {
"32 32 68 1",
" 	c None",
".	c #535150",
"+	c #9D9895",
"@	c #6D6C6B",
"#	c #302B28",
"$	c #2A2421",
"%	c #918B88",
"&	c #74706D",
"*	c #241D1B",
"=	c #5A5450",
"-	c #4D4643",
";	c #6D6967",
">	c #544D49",
",	c #615C5A",
"'	c #45413F",
")	c #656564",
"!	c #676260",
"~	c #6E6966",
"{	c #766D68",
"]	c #4C4440",
"^	c #615B58",
"/	c #3E3A38",
"(	c #463E3B",
"_	c #524F4D",
":	c #59534F",
"<	c #584F4C",
"[	c #514845",
"}	c #383432",
"|	c #74706E",
"1	c #888684",
"2	c #2D221F",
"3	c #130A09",
"4	c #433C3A",
"5	c #1D1715",
"6	c #383330",
"7	c #3A302C",
"8	c #534C49",
"9	c #766E6B",
"0	c #4B4846",
"a	c #5C514B",
"b	c #1D1311",
"c	c #413937",
"d	c #44413E",
"e	c #312C2A",
"f	c #383332",
"g	c #4E4644",
"h	c #403734",
"i	c #5E120D",
"j	c #CE1A0F",
"k	c #2F0E0B",
"l	c #090504",
"m	c #524F4E",
"n	c #5B514D",
"o	c #332926",
"p	c #BB1A10",
"q	c #130E0C",
"r	c #4D4541",
"s	c #723832",
"t	c #A91A11",
"u	c #4B1712",
"v	c #7D7570",
"w	c #5D5958",
"x	c #443935",
"y	c #575352",
"z	c #686360",
"A	c #37322F",
"B	c #585756",
"C	c #454240",
"                                ",
"                                ",
"                                ",
"                     .          ",
"                                ",
"                    +           ",
"     @              #           ",
"      @            $            ",
"                   %            ",
"       &           *            ",
"        =         -             ",
"         ;        >             ",
"         ,       #'   )         ",
"          !~     {   ]          ",
"            ^   /#  (           ",
"        _    :.<[}(-            ",
"         |#  12334              ",
"           *56733289=           ",
"            0ab333cd #          ",
"           ]ef33333g{  @        ",
"          ^  hbijk3l >          ",
"         m   bnopk3q  r         ",
"            -dostu3    -        ",
"            v wxh2y    _/       ",
"            =   6       z       ",
"            A            )      ",
"           B/             @     ",
"           C/                   ",
"           B                    ",
"           @                    ",
"           @                    ",
"           @                    "};
