/* XPM */
static char * pavuk_as_icon_xpm[] = {
"48 48 33 1",
" 	c None",
".	c #14110D",
"+	c #848A8E",
"@	c #4B4E50",
"#	c #CBCCCD",
"$	c #696A6B",
"%	c #A6A9A9",
"&	c #821610",
"*	c #E6EBEA",
"=	c #232A30",
"-	c #565B60",
";	c #DADDDD",
">	c #7F736F",
",	c #9B9D9F",
"'	c #B6BABA",
")	c #522C24",
"!	c #3B1911",
"~	c #373A39",
"{	c #CD1A0C",
"]	c #191B1D",
"^	c #4E3F3B",
"/	c #727A7F",
"(	c #FDFDFC",
"_	c #7E2A24",
":	c #51160F",
"<	c #5C4E49",
"[	c #675C58",
"}	c #C2BDBD",
"|	c #827F7F",
"1	c #1D1211",
"2	c #958D8C",
"3	c #392E2A",
"4	c #B8AFAF",
"                             [  2               ",
" ,%}+,,,2,,,2,2,2,,,,,2,,,,,,<',4,,2,,22,,,,|$  ",
",***;}************;*********4|;}#;*;;;;;#}##',  ",
"%***;;}**************(*****;$'#4;;;;####'##'+$  ",
"%***;*'';******;**;*******;*<;#};;;#####'#''+~  ",
"%*;**;;%#**********;*****;*}$;4;;;;##;#'#}}'/]  ",
"%***;/@$$2@@@@@@---$$-$$$$$^[|%-@@@@~@@~+'''+=  ",
"%****@/4>,,%%%%%'''##'%'##'~}4'%%%,%%,%,##''+=  ",
"%(***@}(;[4*((((((((((((((2$(};((((*(((((#'%+=  ",
"%****@}((%>}((((((((((((((<};4((((*((((((#'%/.  ",
"%***;@#((($|;((((((((((((%[(}#(((*;(**(((#'%/=  ",
"%****@}(((;^,*((((((((((([,*4*((*#((;((((#%%$]  ",
"%****@}((((#<%((((((((((#^*}}((;%((#(((((#'%/=  ",
"%***;@}(((((;<,(((((((((2|*};(#<}(;;(((((;'%$]  ",
"%****+#((((((*>2(((((((*)#;4(;^4*##((((((;%%/=  ",
"%****-'*((((((*|>*(((((,<(}#;<,(#4*((((((;%,$]  ",
"%***;@};#*((((((,[;(4%4<4;%|)2(#4*(((((((#%%$]  ",
"%**;*@#(*42*(((((4[}[!]32^)>;*#4*((((((((#%%$.  ",
"%***;@#(((4>}(((((;^11.13|#;#4}*(((((((((#,,$=  ",
"%****@}((((;><'42|$31..1<|222#(((((((((((#%,-.  ",
"%***;@#((((((}>[|4}|.1..!<[[^^,;(((((((((#,,$]  ",
"%***;@}(((((((;}}}[!.11..)|}}4>^#((((((((',,$.  ",
"%***;@#(((((((((|<^]..1...1<,#}42#(((((((#,+-]  ",
"%***;@}(((((((*[[#^.1....111![#(;}#((((((#,,-.  ",
"%***;@}((((((;^|(#1..1!::...|>)|((;}*((((#,,$]  ",
"%****@}(((((*>2(#|1..:{{&.11>4%[[;((;;(((',+-.  ",
"%****@}((((([,(#}>1!^1&{:...>4;*2<;(((;((},,-]  ",
"%***;@}((((42(#4#^.)>3:{:.112}}((>>;(((((#++@.  ",
"%***;@}(((;;(*4*|[^3$){{{..144;((*32*(((('++@]  ",
"%***;@}((**((#*(^#41^^_:&11[44;(((4<}*((('+/@.  ",
"%*;;;@}((#((;((;^(}|3^[[^])44}(((((|2#((('+/@.  ",
"%*;;;@}(;((;(((}[*4*%)111^%}4#(((((;$4*(('+/@.  ",
"%;;*;+;(*(;;(((4>*4*(;,2,444}(((((((%>}*('+/@.  ",
",;;;;#;;;;##;;#22#};;;#4}4}4'#####}''|4%,++/@.  ",
"%*;#####'#}''}4|,4}''''}44,,,,,,2,++,-+'++//@.  ",
"%;#;;#}#}'}}''4|244%%%%%%%,,,,++,2+++/+'4+$$~.  ",
"%#+++++++/////+>>42$/$-----$-$$-----@--$%/@@=.  ",
"$-==]===]==]]=~[$4-]]]]].]]]]]]]]].].]..-/~...  ",
"         @+-~=^<>}2$-@~~==]]....]]]].    $$     ",
"         '#|--$|-'+++/--~==...]=~@@@]           ",
"        ';,//$+,>4[-@@~~=====~-$////-]     [    ",
"       '*#,,++,%,,++////////+++,,+,,+-.         ",
"      4**;#;#;##;};;#;;;;;;;;;;;;;;;;#$]        ",
"     -;;''#'}#}#}'}'#}}'''#'''#''##'#',]        ",
"     -;',%,,,,%%%%%,,%%,%,,%%,%,,%,,%,,~        ",
"     $+-~~~~~~~@@@~~~~~~~~~~~~~~~~~~~~~]        ",
"                                                ",
"                                                "};
