/* XPM */
static char * pavuk_prg_icon_xpm[] = {
"46 63 11 1",
" 	c None",
".	c #130A09",
"+	c #8B8481",
"@	c #554942",
"#	c #841A14",
"$	c #BDBBB9",
"%	c #3B2E2A",
"&	c #A6A2A0",
"*	c #CE1A0F",
"=	c #6E655F",
"-	c #DAD9D7",
"                                   -          ",
"                                   -          ",
"                                  -           ",
"                                  $           ",
"                                              ",
"                                 &            ",
"                                 &            ",
"                                              ",
"                                &             ",
"                               $&             ",
"-                              @$             ",
" -                             @              ",
"  -                           &=              ",
"   -                          @-              ",
"   -                          @               ",
"    $                        &+               ",
"     &                       =&               ",
"     -+                      %                ",
"      =&                    +@                ",
"       @                    %$                ",
"       &=                  &@                 ",
"        =$                 @&        -        ",
"         %$               $@        $         ",
"         &%               ==       -          ",
"          &@              @&      -$          ",
"           &%$           +=      ==           ",
"            $@&          @+     +@            ",
"   -          =+        &@     +@             ",
"     -         +=     - @=    +%              ",
"      $-        +@  &&=$%   +%@               ",
"        =$       $@ &%..%&%%@&                ",
"         ++       $%......+                   ",
"          $@=   $$&@.....=                    ",
"            +@%%%@+=.......@%%%&              ",
"                   @.....%@$ $&=@+            ",
"                 +%%.......%&    @=           ",
"               -@@@..........@$    &          ",
"              =%+ ............%@-   --        ",
"             =@  $............-=%=    -       ",
"            +@   =....***#....   @@           ",
"           +=    =..%.#**.....    &%          ",
"          $@     %.%=%.#*.....     +@         ",
"          +     +..%+=.**#...%      @=        ",
"         $      %$@.=@#***...+       %        ",
"        -      &@  .%=###%...        &@       ",
"       -       =+  &.@===@%.&         =&      ",
"               @&   $%.....&          -@      ",
"               %-     &+@+             ++     ",
"               @                        +$    ",
"               =                         -    ",
"              -=                          $   ",
"              &+                           -  ",
"              $=                           -  ",
"              ++                            - ",
"              +=                              ",
"              &                              -",
"              $                               ",
"              -                               ",
"              -                               ",
"              -                               ",
"              -                               ",
"              -                               ",
"              -                               "};
