/* XPM */
static char * pavuk_64x64_xpm[] = {
"64 64 11 1",
" 	c None",
".	c #DAD9D7",
"+	c #BDBBB9",
"@	c #A6A2A0",
"#	c #554942",
"$	c #6E655F",
"%	c #8B8481",
"&	c #3B2E2A",
"*	c #130A09",
"=	c #CE1A0F",
"-	c #841A14",
"                                                                ",
"                                            .                   ",
"                                            .                   ",
"                                           .                    ",
"                                           +                    ",
"                                                                ",
"                                          @                     ",
"                                          @                     ",
"                                                                ",
"                                         @                      ",
"                                        +@                      ",
"         .                              #+                      ",
"          .                             #                       ",
"           .                           @$                       ",
"            .                          #.                       ",
"            .                          #                        ",
"             +                        @%                        ",
"              @                       $@                        ",
"              .%                      &                         ",
"               $@                    %#                         ",
"                #                    &+                         ",
"                @$                  @#                          ",
"                 $+                 #@        .                 ",
"                  &+               +#        +                  ",
"                  @&               $$       .                   ",
"                   @#              #@      .+                   ",
"                    @&+           %$      $$                    ",
"                     +#@          #%     %#                     ",
"            .          $%        @#     %#                      ",
"              .         %$     . #$    %&                       ",
"               +.        %#  @@$+&   %&#                        ",
"                 $+       +# @&**&@&&#@                         ",
"                  %%       +&******%                            ",
"                   +#$   ++@#*****$                             ",
"                     %#&&&#%$*******#&&&@                       ",
"                            #*****&#+ +@$#%                     ",
"                          %&&*******&@    #$                    ",
"                        .###**********#+    @                   ",
"                       $&% ************&#.   ..                 ",
"                      $#  +************.$&$    .                ",
"                     %#   $****===-****   ##                    ",
"                    %$    $**&*-==*****    @&                   ",
"                   +#     &*&$&*-=*****     %#                  ",
"                   %     %**&%$*==-***&      #$                 ",
"                  +      &+#*$#-===***%       &                 ",
"                 .      @#  *&$---&***        @#                ",
"                .       $%  @*#$$$#&*@         $@               ",
"                        #@   +&*****@          .#               ",
"                        &.     @%#%             %%              ",
"                        #                        %+             ",
"                        $                         .             ",
"                       .$                          +            ",
"                       @%                           .           ",
"                       +$                           .           ",
"                       %%                            .          ",
"                       %$                                       ",
"                       @                              .         ",
"                       +                                        ",
"                       .                                        ",
"                       .                                        ",
"                       .                                        ",
"                       .                                        ",
"                       .                                        ",
"                       .                                        "};
