/* XPM */
static char * pavuk_logo_xpm[] = {
"98 136 11 1",
" 	c None",
".	c #16100E",
"+	c #8F8885",
"@	c #971E14",
"#	c #564A44",
"$	c #492D27",
"%	c #CAC8C5",
"&	c #7F6C68",
"*	c #ABA7A4",
"=	c #6D675F",
"-	c #D3190F",
"                                                                           %%                     ",
"                                                                           %                      ",
"                                                                           %                      ",
"                                                                          *%                      ",
"                                                                          *                       ",
"                                                                         *%                       ",
"                                                                         *                        ",
"                                                                        %*                        ",
"                                                                        **                        ",
"                                                                        &%                        ",
"                                                                       %+                         ",
"                                                                       &%                         ",
"                                                                      %&%                         ",
"                                                                      *+                          ",
"                                                                      +*                          ",
"                                                                      +%                          ",
"                                                                     %+                           ",
"                                                                     &%                           ",
"                                                                    %+                            ",
"                                                                    &*                            ",
"                                                                   *$%                            ",
"                                                                  *.#%                            ",
"%                                                                %=$#                             ",
"%%                                                               %#$+                             ",
" %%                                                              %#$*                             ",
"  %%                                                             +$#%                             ",
"   %%                                                            &$&                              ",
"    %%                                                          %$#%                              ",
"     %*                                                         *$#                               ",
"      %%                                                        #$*                               ",
"       *%                                                      %#$*                               ",
"        *                                                      *.#                                ",
"        %+                                                     +.+                                ",
"         **                                                    #$%                                ",
"          +*                                                  %.$                                 ",
"          %+%                                                 +.+                                 ",
"           *=%                                               %=.*                                 ",
"            =#%                                              +..%                                 ",
"            *.#%                                             #.$                                  ",
"            %$$+                                            %..&                                  ",
"             *$#%                                           +.$%                                  ",
"              =$&%                                         %$.&                                   ",
"              %##+                                         *..+                                   ",
"               &#=%                                        #$#%                  %                ",
"                =$=                                       *#$&                  %                 ",
"                *##*                                      ###%                 %%                 ",
"                 *$#%                                    *$#=                  %                  ",
"                  =$=%                                   =$$*                 *                   ",
"                  %#.#                                  %#$#%                **                   ",
"                   +.$+                                 +$#+                %*                    ",
"                    +..+                                =#$%               %+                     ",
"                    %#.#*                              +$#=               %+%                     ",
"                     %#$$%                             =$$+               *+                      ",
"                      %=.$*                           %$$=%             %&+                       ",
"                        +..+                          *$#&            %*#$*                       ",
"                         &.$&%                        #$#%           %+#$&                        ",
"                          +$$=%                      %$$=            *#$#%                        ",
"     %                     +#=&%                     =$$*           +$$#%                         ",
"      %%                    +#=#*                   %$$$           *$$#*                          ",
"       %%                    *##=*                  &.$*          %$$$%                           ",
"         %%                   %=##&%               %#.$          %#.$*                            ",
"          %%%                  %=#==%          %   *..+         *$.$*                             ",
"           %*%                   +###*     %%  %*  &..%       %+$..+                              ",
"             %*%                  +###*    ** %==%%$.&      %&$..$*                               ",
"              %+*%                 %#$#*   %$$$.$+=..*   %&=$...=%                                ",
"                *==*                 #$#*  %..$.....=%%=$..$$$=%                                  ",
"                 %$.+%                +.$+%*.$$$....#+#...$$=*                                    ",
"                  *#$=*                +$.$$............$#*%                                      ",
"                    +##=%               %#.............+                                          ",
"                     *###=%              +............*                                           ",
"                       +#.$&%    %%**+++=$...........$+%                                          ",
"                        *=..#==#$$..$..................$$$#$#$##=+%                               ",
"                          *=....$$$.##&+*+#..............$#$$$$...#*%                             ",
"                            %*+++**%     %#...$.......$=+==#=###$...#+%                           ",
"                                        %#.............$=*    %%%%+#$.$=%                         ",
"                                      *#.................$+%        *#.$$*                        ",
"                                    %=#$..$.....$.$........#*        %&$.$%                       ",
"                                   &###$$...................$+%        +#$+%                      ",
"                                 %&##$$##.....................#+%        %++%                     ",
"                                +#$$#+*$.......................$#+%        %*%%                   ",
"                              %+$.$=  *..........................$#+%        %+%                  ",
"                             %#..#*   #.........................$..$#*        %*%                 ",
"                            %#..=%   %$........................#*&$...=%        %*%               ",
"                           %$..+     +...............@.........#  %&$..#*         %%              ",
"                          %#.$+      =.........@@-----@........$    %#$..+         %%             ",
"                         %##$*       $........$-------@.........%     +$.$=%                      ",
"                        %&#$+       %$.........@------..........*      %=..#                      ",
"                       %=#$*        %.....$$....@----@..........%        *#.#%                    ",
"                       +$$+         %$...$###$...@---@..........*         %$.#                    ",
"                      %..+          =....$#&&#....@--..........$           *..+                   ",
"                      +.&          %$....$#&&&#...---@.........$            +..%                  ",
"                     +#%           #.....$#++&#..@----.........=             $.#%                 ",
"                    %=            %..$$..$#++&#.@------........&             *..=                 ",
"                   *+            %$.#%+...#&&#$.--------......$%              #.$%                ",
"                   *             *..+  #..$#&#.@------@@......#               %$.#                ",
"                  *              =.=   *...$#&$@@@@@.@.......$%                +$$*               ",
"                 *               #.+    &...#&&#####$$#$$....#                  =$$%              ",
"                *%              *..%    %#..#&&&&&&&&&=#$...$%                  *##+              ",
"               %*               *$.%     %#..$$#=&==##$$....*                    +#$*             ",
"               *                &.#%      %#.....$.$$.....$*                     %=#=             ",
"              %%                +.#        %+$...........$*                       *=#+            ",
"              %                 =.&          %=$.......$+                          &&=%           ",
"              %                 =.=            %*=#$$#&*                           %=#=           ",
"                               %#$*                %%                               +#$%          ",
"                               %#$*                                                  *$=          ",
"                               *##%                                                    +*         ",
"                               %$#*                                                     *%        ",
"                               +#=%                                                      *%       ",
"                               *##                                                       %*       ",
"                               &&&                                                        *%      ",
"                               +&=                                                         *      ",
"                              %==&                                                         %%     ",
"                              %&##                                                          %%    ",
"                              %&#+                                                           %    ",
"                              %&#&                                                           %%   ",
"                              *##*                                                            %   ",
"                              %$$+                                                             %  ",
"                              *.$%                                                             %% ",
"                              %$$%                                                              % ",
"                              %#*                                                               %%",
"                               +                                                                 %",
"                              %*                                                                  ",
"                              %+                                                                  ",
"                              %*                                                                  ",
"                              %*                                                                  ",
"                              %%                                                                  ",
"                              %%                                                                  ",
"                              %%                                                                  ",
"                              %%                                                                  ",
"                              %                                                                   ",
"                              %                                                                   ",
"                              %                                                                   ",
"                              %                                                                   ",
"                              %                                                                   ",
"                              %                                                                   ",
"                              %                                                                   "};
